<svg xmlns="http://www.w3.org/2000/svg" x="0px" y="0px"
width="128" height="128"
viewBox="0 0 172 172"
style=" fill:#000000;"><g fill="none" fill-rule="nonzero" stroke="none" stroke-width="1" stroke-linecap="butt" stroke-linejoin="miter" stroke-miterlimit="10" stroke-dasharray="" stroke-dashoffset="0" font-family="none" font-weight="none" font-size="none" text-anchor="none" style="mix-blend-mode: normal"><path d="M0,172v-172h172v172z" fill="none"></path><g fill="#F16A6E"><path d="M29.5625,10.75c-10.37207,0 -18.8125,8.44043 -18.8125,18.8125v5.375c0,7.41162 6.02588,13.4375 13.4375,13.4375h18.8125v99.4375c0,4.44067 3.62183,8.0625 8.0625,8.0625h24.1875v13.4375c0,0.93433 0.48291,1.79517 1.27026,2.28858c0.79785,0.49341 1.78467,0.5249 2.62451,0.11548l12.44018,-4.88159l12.3772,5.02857c0.27295,0.09448 0.56689,0.13647 0.85034,0.13647c0.5564,0 1.11279,-0.16797 1.57471,-0.50391c0.70337,-0.50391 1.11279,-1.32275 1.11279,-2.18359v-13.4375h51.0625c4.44067,0 8.0625,-3.62183 8.0625,-8.0625v-118.25c0,-10.37207 -8.44043,-18.8125 -18.8125,-18.8125zM29.5625,16.125c7.78955,0 13.4375,5.64795 13.4375,13.4375v13.4375h-8.13599c1.71118,-2.25708 2.76099,-5.02857 2.76099,-8.0625v-2.6875c0,-1.49072 -1.19678,-2.6875 -2.6875,-2.6875c-1.49072,0 -2.6875,1.19678 -2.6875,2.6875v2.6875c0,4.44067 -3.62183,8.0625 -8.0625,8.0625c-4.44067,0 -8.0625,-3.62183 -8.0625,-8.0625v-5.375c0,-7.41162 6.02588,-13.4375 13.4375,-13.4375zM42.97901,16.125h104.83349c7.41162,0 13.4375,6.02588 13.4375,13.4375v94.0625h-40.3125c-1.49072,0 -2.6875,1.19678 -2.6875,2.6875c0,1.49072 1.19678,2.6875 2.6875,2.6875h40.3125v18.8125c0,1.48022 -1.20728,2.6875 -2.6875,2.6875h-51.0625v-12.58716l6.21484,-2.06811c0.81885,-0.26245 1.44873,-0.90283 1.72168,-1.72168c0.26245,-0.80835 0.12598,-1.70068 -0.37793,-2.39355l-3.88428,-5.41699l3.88428,-5.41699c0.50391,-0.70337 0.62988,-1.58521 0.37793,-2.40405c-0.27295,-0.80835 -0.90283,-1.44873 -1.72168,-1.72168l-6.31982,-2.08911l-0.05249,-6.67676c0,-0.85034 -0.40942,-1.64819 -1.10229,-2.1521c-0.69287,-0.50391 -1.58521,-0.65088 -2.39355,-0.39893l-6.35132,2.03662l-3.95776,-5.375c-1.01831,-1.38574 -3.31738,-1.38574 -4.3357,0l-3.94727,5.375l-6.35132,-2.03662c-0.81885,-0.25195 -1.71118,-0.10498 -2.39355,0.39893c-0.69287,0.50391 -1.10229,1.30176 -1.11279,2.1521l-0.04199,6.67676l-6.31983,2.09961c-0.81885,0.26245 -1.44873,0.90283 -1.72168,1.72168c-0.26245,0.80835 -0.12598,1.70068 0.37793,2.39355l3.88428,5.41699l-3.88428,5.41699c-0.50391,0.70337 -0.62988,1.58521 -0.37793,2.40405c0.27295,0.80835 0.90283,1.44873 1.72168,1.72168l6.21484,2.05762v12.58716h-24.1875c-1.48022,0 -2.6875,-1.20728 -2.6875,-2.6875v-18.8125h13.4375c1.49072,0 2.6875,-1.19678 2.6875,-2.6875c0,-1.49072 -1.19678,-2.6875 -2.6875,-2.6875h-13.4375v-94.0625c0,-5.3645 -2.02612,-10.07812 -5.39599,-13.4375zM56.4375,21.5c-1.49072,0 -2.6875,1.19678 -2.6875,2.6875v5.375c0,1.49072 1.19678,2.6875 2.6875,2.6875c1.49072,0 2.6875,-1.19678 2.6875,-2.6875v-5.375c0,-1.49072 -1.19678,-2.6875 -2.6875,-2.6875zM69.875,21.5c-1.49072,0 -2.6875,1.19678 -2.6875,2.6875v5.375c0,1.49072 1.19678,2.6875 2.6875,2.6875c1.49072,0 2.6875,-1.19678 2.6875,-2.6875v-5.375c0,-1.49072 -1.19678,-2.6875 -2.6875,-2.6875zM83.3125,21.5c-1.49072,0 -2.6875,1.19678 -2.6875,2.6875v5.375c0,1.49072 1.19678,2.6875 2.6875,2.6875c1.49072,0 2.6875,-1.19678 2.6875,-2.6875v-5.375c0,-1.49072 -1.19678,-2.6875 -2.6875,-2.6875zM96.75,21.5c-1.49072,0 -2.6875,1.19678 -2.6875,2.6875v5.375c0,1.49072 1.19678,2.6875 2.6875,2.6875c1.49072,0 2.6875,-1.19678 2.6875,-2.6875v-5.375c0,-1.49072 -1.19678,-2.6875 -2.6875,-2.6875zM110.1875,21.5c-1.49072,0 -2.6875,1.19678 -2.6875,2.6875v5.375c0,1.49072 1.19678,2.6875 2.6875,2.6875c1.49072,0 2.6875,-1.19678 2.6875,-2.6875v-5.375c0,-1.49072 -1.19678,-2.6875 -2.6875,-2.6875zM123.625,21.5c-1.49072,0 -2.6875,1.19678 -2.6875,2.6875v5.375c0,1.49072 1.19678,2.6875 2.6875,2.6875c1.49072,0 2.6875,-1.19678 2.6875,-2.6875v-5.375c0,-1.49072 -1.19678,-2.6875 -2.6875,-2.6875zM137.0625,21.5c-1.49072,0 -2.6875,1.19678 -2.6875,2.6875v5.375c0,1.49072 1.19678,2.6875 2.6875,2.6875c1.49072,0 2.6875,-1.19678 2.6875,-2.6875v-5.375c0,-1.49072 -1.19678,-2.6875 -2.6875,-2.6875zM150.5,21.5c-1.49072,0 -2.6875,1.19678 -2.6875,2.6875v5.375c0,1.49072 1.19678,2.6875 2.6875,2.6875c1.49072,0 2.6875,-1.19678 2.6875,-2.6875v-5.375c0,-1.49072 -1.19678,-2.6875 -2.6875,-2.6875zM72.5625,59.125c-1.49072,0 -2.6875,1.19678 -2.6875,2.6875c0,1.49072 1.19678,2.6875 2.6875,2.6875h21.5c1.49072,0 2.6875,-1.19678 2.6875,-2.6875c0,-1.49072 -1.19678,-2.6875 -2.6875,-2.6875zM104.8125,59.125c-1.49072,0 -2.6875,1.19678 -2.6875,2.6875c0,1.49072 1.19678,2.6875 2.6875,2.6875h32.25c1.49072,0 2.6875,-1.19678 2.6875,-2.6875c0,-1.49072 -1.19678,-2.6875 -2.6875,-2.6875zM72.5625,75.25c-1.49072,0 -2.6875,1.19678 -2.6875,2.6875c0,1.49072 1.19678,2.6875 2.6875,2.6875h43c1.49072,0 2.6875,-1.19678 2.6875,-2.6875c0,-1.49072 -1.19678,-2.6875 -2.6875,-2.6875zM126.3125,75.25c-1.49072,0 -2.6875,1.19678 -2.6875,2.6875c0,1.49072 1.19678,2.6875 2.6875,2.6875h10.75c1.49072,0 2.6875,-1.19678 2.6875,-2.6875c0,-1.49072 -1.19678,-2.6875 -2.6875,-2.6875zM91.375,108.23486l2.93945,3.97876c0.68237,0.93433 1.87915,1.31226 2.97095,0.96582l4.71362,-1.49072l0.03149,4.94458c0.0105,1.15478 0.74536,2.17309 1.84766,2.54053l4.68213,1.55371l-2.87646,4.01026c-0.67187,0.93433 -0.67187,2.19409 0,3.12842l2.87646,4.03125l-4.68213,1.55371c-1.10229,0.36743 -1.83716,1.38574 -1.84766,2.53003l-0.03149,4.94458l-4.71362,-1.49072c-1.0918,-0.34644 -2.29907,0.04199 -2.98145,0.96582l-2.92896,3.98926l-2.93945,-3.97876c-0.5144,-0.70337 -1.32275,-1.0918 -2.1521,-1.0918c-0.28345,0 -0.5459,0.04199 -0.81885,0.12598l-4.71362,1.49072l-0.03149,-4.95508c-0.0105,-1.14429 -0.74536,-2.1626 -1.84766,-2.53003l-4.68213,-1.55371l2.87646,-4.02075c0.67188,-0.93433 0.67188,-2.19409 0,-3.12842l-2.87646,-4.02075l4.68213,-1.55371c1.1023,-0.36743 1.83716,-1.38574 1.84766,-2.53003l0.03149,-4.94458l4.71362,1.50122c1.0918,0.33594 2.28858,-0.04199 2.97095,-0.96582zM85.25464,145.1355l3.95777,5.375c0.50391,0.69287 1.31226,1.0918 2.1626,1.0918c0.86084,0 1.65869,-0.39892 2.1731,-1.0918l3.94727,-5.375l4.62964,1.48023v18.95947l-9.89966,-4.18872c-0.27295,-0.09448 -0.56689,-0.13647 -0.85034,-0.13647c-0.40942,0 -0.82935,0.09448 -1.20728,0.28345l-9.54272,3.43286v-18.35059z"></path></g></g></svg>
