<svg xmlns="http://www.w3.org/2000/svg" x="0px" y="0px"
width="128" height="128"
viewBox="0 0 172 172"
style=" fill:#000000;"><g fill="none" fill-rule="nonzero" stroke="none" stroke-width="1" stroke-linecap="butt" stroke-linejoin="miter" stroke-miterlimit="10" stroke-dasharray="" stroke-dashoffset="0" font-family="none" font-weight="none" font-size="none" text-anchor="none" style="mix-blend-mode: normal"><path d="M0,172v-172h172v172z" fill="none"></path><g fill="#F16A6E"><path d="M13.4375,16.125c-4.44067,0 -8.0625,3.62183 -8.0625,8.0625v86c0,4.44067 3.62183,8.0625 8.0625,8.0625h19.20093c0.16797,2.87647 -0.30444,8.96533 -5.3855,17.42676c-0.5459,0.92383 -0.49341,2.08911 0.12598,2.94995c0.5144,0.71387 1.33325,1.12329 2.18359,1.12329c0.18897,0 0.38843,-0.02099 0.58789,-0.06299c20.75464,-4.60864 28.4812,-16.76538 30.73828,-21.43701h19.73633v13.4375c0,4.44067 3.62183,8.0625 8.0625,8.0625h32.87988c1.6167,4.94458 7.06518,16.48193 23.17969,18.78101c0.12598,0.021 0.25195,0.03149 0.37793,0.03149c0.81885,0 1.5957,-0.37793 2.11011,-1.02881c0.59839,-0.75586 0.74536,-1.76367 0.38843,-2.65601c-3.2334,-8.073 -3.32788,-12.9021 -3.08643,-15.12768h14.02539c4.44067,0 8.0625,-3.62183 8.0625,-8.0625v-59.125c0,-4.44067 -3.62183,-8.0625 -8.0625,-8.0625h-13.4375v-40.3125c0,-4.44067 -3.62183,-8.0625 -8.0625,-8.0625zM13.4375,21.5h123.625c1.48022,0 2.6875,1.20728 2.6875,2.6875v86c0,1.48022 -1.20728,2.6875 -2.6875,2.6875h-77.9375c-1.15478,0 -2.18359,0.73486 -2.55103,1.83716c-0.04199,0.13647 -4.24121,12.14624 -21.76245,18.10913c4.91309,-11.03345 2.78198,-17.78369 2.677,-18.10913c-0.36743,-1.10229 -1.39624,-1.83716 -2.55103,-1.83716h-21.5c-1.48022,0 -2.6875,-1.20728 -2.6875,-2.6875v-86c0,-1.48022 1.20728,-2.6875 2.6875,-2.6875zM34.9375,53.75c-1.49072,0 -2.6875,1.20728 -2.6875,2.6875c0,1.48022 1.19678,2.6875 2.6875,2.6875h48.375c1.49072,0 2.6875,-1.20728 2.6875,-2.6875c0,-1.48022 -1.19678,-2.6875 -2.6875,-2.6875zM94.0625,53.75c-1.49072,0 -2.6875,1.20728 -2.6875,2.6875c0,1.48022 1.19678,2.6875 2.6875,2.6875h10.75c1.49072,0 2.6875,-1.20728 2.6875,-2.6875c0,-1.48022 -1.19678,-2.6875 -2.6875,-2.6875zM34.9375,69.875c-1.49072,0 -2.6875,1.20728 -2.6875,2.6875c0,1.48022 1.19678,2.6875 2.6875,2.6875h59.125c1.49072,0 2.6875,-1.20728 2.6875,-2.6875c0,-1.48022 -1.19678,-2.6875 -2.6875,-2.6875zM145.125,69.875h13.4375c1.48022,0 2.6875,1.20728 2.6875,2.6875v59.125c0,1.48022 -1.20728,2.6875 -2.6875,2.6875h-16.125c-1.01831,0 -1.94214,0.57739 -2.40405,1.48022c-0.29395,0.58789 -2.45654,5.47998 0.92383,16.33496c-12.49268,-3.93677 -14.59229,-15.0542 -14.68677,-15.5686c-0.20996,-1.29126 -1.33325,-2.24658 -2.64551,-2.24658h-34.9375c-1.48022,0 -2.6875,-1.20728 -2.6875,-2.6875v-13.4375h51.0625c4.44067,0 8.0625,-3.62183 8.0625,-8.0625zM21.5,96.75c-1.49072,0 -2.6875,1.20728 -2.6875,2.6875v5.375c0,1.48022 1.19678,2.6875 2.6875,2.6875c1.49072,0 2.6875,-1.20728 2.6875,-2.6875v-5.375c0,-1.48022 -1.19678,-2.6875 -2.6875,-2.6875zM34.9375,96.75c-1.49072,0 -2.6875,1.20728 -2.6875,2.6875v5.375c0,1.48022 1.19678,2.6875 2.6875,2.6875c1.49072,0 2.6875,-1.20728 2.6875,-2.6875v-5.375c0,-1.48022 -1.19678,-2.6875 -2.6875,-2.6875zM48.375,96.75c-1.49072,0 -2.6875,1.20728 -2.6875,2.6875v5.375c0,1.48022 1.19678,2.6875 2.6875,2.6875c1.49072,0 2.6875,-1.20728 2.6875,-2.6875v-5.375c0,-1.48022 -1.19678,-2.6875 -2.6875,-2.6875zM61.8125,96.75c-1.49072,0 -2.6875,1.20728 -2.6875,2.6875v5.375c0,1.48022 1.19678,2.6875 2.6875,2.6875c1.49072,0 2.6875,-1.20728 2.6875,-2.6875v-5.375c0,-1.48022 -1.19678,-2.6875 -2.6875,-2.6875zM75.25,96.75c-1.49072,0 -2.6875,1.20728 -2.6875,2.6875v5.375c0,1.48022 1.19678,2.6875 2.6875,2.6875c1.49072,0 2.6875,-1.20728 2.6875,-2.6875v-5.375c0,-1.48022 -1.19678,-2.6875 -2.6875,-2.6875zM88.6875,96.75c-1.49072,0 -2.6875,1.20728 -2.6875,2.6875v5.375c0,1.48022 1.19678,2.6875 2.6875,2.6875c1.49072,0 2.6875,-1.20728 2.6875,-2.6875v-5.375c0,-1.48022 -1.19678,-2.6875 -2.6875,-2.6875zM102.125,96.75c-1.49072,0 -2.6875,1.20728 -2.6875,2.6875v5.375c0,1.48022 1.19678,2.6875 2.6875,2.6875c1.49072,0 2.6875,-1.20728 2.6875,-2.6875v-5.375c0,-1.48022 -1.19678,-2.6875 -2.6875,-2.6875zM115.5625,96.75c-1.49072,0 -2.6875,1.20728 -2.6875,2.6875v5.375c0,1.48022 1.19678,2.6875 2.6875,2.6875c1.49072,0 2.6875,-1.20728 2.6875,-2.6875v-5.375c0,-1.48022 -1.19678,-2.6875 -2.6875,-2.6875zM129,96.75c-1.49072,0 -2.6875,1.20728 -2.6875,2.6875v5.375c0,1.48022 1.19678,2.6875 2.6875,2.6875c1.49072,0 2.6875,-1.20728 2.6875,-2.6875v-5.375c0,-1.48022 -1.19678,-2.6875 -2.6875,-2.6875z"></path></g></g></svg>
