<svg xmlns="http://www.w3.org/2000/svg" x="0px" y="0px"
width="128" height="128"
viewBox="0 0 172 172"
style=" fill:#000000;"><g fill="none" fill-rule="nonzero" stroke="none" stroke-width="1" stroke-linecap="butt" stroke-linejoin="miter" stroke-miterlimit="10" stroke-dasharray="" stroke-dashoffset="0" font-family="none" font-weight="none" font-size="none" text-anchor="none" style="mix-blend-mode: normal"><path d="M0,172v-172h172v172z" fill="none"></path><g fill="#f16a6e"><path d="M43,13.4375c-8.86035,0 -16.88086,3.59033 -22.71777,9.38526c-0.03149,0.02099 -0.05249,0.03149 -0.08398,0.06299c-0.03149,0.021 -0.04199,0.05249 -0.06299,0.08398c-5.79492,5.83691 -9.38526,13.85742 -9.38526,22.71777c0,17.78369 14.46631,32.25 32.25,32.25c8.86035,0 16.88086,-3.59033 22.71777,-9.38525c0.03149,-0.021 0.05249,-0.03149 0.08398,-0.06299c0.03149,-0.02099 0.03149,-0.05249 0.05249,-0.08398c5.80542,-5.83691 9.39575,-13.85742 9.39575,-22.71777c0,-17.78369 -14.46631,-32.25 -32.25,-32.25zM110.1875,16.125c-4.44067,0 -8.0625,3.62183 -8.0625,8.0625v43c0,4.44067 3.62183,8.0625 8.0625,8.0625h43c4.44067,0 8.0625,-3.62183 8.0625,-8.0625v-43c0,-4.44067 -3.62183,-8.0625 -8.0625,-8.0625zM43,18.8125c14.82324,0 26.875,12.05176 26.875,26.875c0,0.08398 -0.0105,0.16797 -0.0105,0.25195l-27.11646,-27.10596c0.08398,0 0.16797,-0.021 0.25195,-0.021zM36.07129,19.75733l32.86939,32.85889c-1.00781,3.7373 -2.76099,7.15967 -5.14404,10.06763l-37.79297,-37.79297c2.90796,-2.38306 6.33032,-4.13623 10.06763,-5.13354zM110.1875,21.5h43c1.48022,0 2.6875,1.20728 2.6875,2.6875v43c0,1.48022 -1.20728,2.6875 -2.6875,2.6875h-43c-1.48022,0 -2.6875,-1.20728 -2.6875,-2.6875v-43c0,-1.48022 1.20728,-2.6875 2.6875,-2.6875zM22.20337,28.69116l37.79297,37.79297c-2.90796,2.38306 -6.33032,4.13623 -10.06763,5.14404l-32.85889,-32.86939c0.99731,-3.7373 2.75049,-7.15967 5.13354,-10.06763zM16.146,45.43555l27.10596,27.11646c-0.08398,0 -0.16797,0.0105 -0.25195,0.0105c-14.82324,0 -26.875,-12.05176 -26.875,-26.875c0,-0.08398 0.021,-0.16797 0.021,-0.25195zM131.6875,100.89673c-2.08911,0 -4.17822,0.76636 -5.70044,2.28857l-22.81226,22.80176c-1.52222,1.52222 -2.35156,3.54834 -2.35156,5.70044c0,2.1626 0.82935,4.17822 2.35156,5.70044l22.81226,22.81226c1.52222,1.52222 3.54834,2.35156 5.70044,2.35156c2.1521,0 4.17822,-0.82935 5.70044,-2.35156l22.80176,-22.81226c1.52222,-1.52222 2.36206,-3.53784 2.36206,-5.70044c0,-2.1521 -0.83984,-4.17822 -2.36206,-5.70044l-22.80176,-22.80176c-1.52222,-1.52222 -3.61133,-2.28857 -5.70044,-2.28857zM40.3125,102.125c-1.94214,0 -3.68482,0.99732 -4.65064,2.677l-24.91186,43.08398c-0.96582,1.67969 -0.96582,3.68482 0,5.375c0.97632,1.67969 2.71899,2.6875 4.66113,2.6875h49.80273c1.95264,0 3.68482,-1.00781 4.66113,-2.6875c0.96582,-1.69018 0.96582,-3.69531 0,-5.375l-24.91186,-43.08398c-0.97632,-1.67969 -2.7085,-2.677 -4.65064,-2.677zM131.6875,106.19824c0.72436,0 1.39624,0.28345 1.90015,0.78735l22.80176,22.81226c0.50391,0.50391 0.78735,1.17578 0.78735,1.88965c0,0.72436 -0.28345,1.39624 -0.78735,1.90015l-22.81226,22.80176c-1.00781,1.01831 -2.77148,1.01831 -3.78979,0l-22.80176,-22.80176c-0.5144,-0.50391 -0.78735,-1.17578 -0.78735,-1.90015c0,-0.72436 0.27295,-1.39624 0.78735,-1.90015l22.80176,-22.80176c0.50391,-0.50391 1.17578,-0.78735 1.90015,-0.78735zM40.3125,107.5l24.90137,43.07349h-49.80273zM118.25,126.3125c-1.48022,0 -2.6875,1.20728 -2.6875,2.6875v5.375c0,1.48022 1.20728,2.6875 2.6875,2.6875c1.48022,0 2.6875,-1.20728 2.6875,-2.6875v-5.375c0,-1.48022 -1.20728,-2.6875 -2.6875,-2.6875zM131.6875,126.3125c-1.48022,0 -2.6875,1.20728 -2.6875,2.6875v5.375c0,1.48022 1.20728,2.6875 2.6875,2.6875c1.48022,0 2.6875,-1.20728 2.6875,-2.6875v-5.375c0,-1.48022 -1.20728,-2.6875 -2.6875,-2.6875zM145.125,126.3125c-1.48022,0 -2.6875,1.20728 -2.6875,2.6875v5.375c0,1.48022 1.20728,2.6875 2.6875,2.6875c1.48022,0 2.6875,-1.20728 2.6875,-2.6875v-5.375c0,-1.48022 -1.20728,-2.6875 -2.6875,-2.6875z"></path></g></g></svg>
