<svg xmlns="http://www.w3.org/2000/svg" x="0px" y="0px"
width="128" height="128"
viewBox="0 0 172 172"
style=" fill:#000000;"><g fill="none" fill-rule="nonzero" stroke="none" stroke-width="1" stroke-linecap="butt" stroke-linejoin="miter" stroke-miterlimit="10" stroke-dasharray="" stroke-dashoffset="0" font-family="none" font-weight="none" font-size="none" text-anchor="none" style="mix-blend-mode: normal"><path d="M0,172v-172h172v172z" fill="none"></path><g fill="#f16a6e"><path d="M42.07617,10.75c-3.59033,0 -6.9707,1.39624 -9.50073,3.93677l-23.26367,23.26367c-2.54053,2.54053 -3.93677,5.9104 -3.93677,9.50073v105.73633c0,4.44067 3.62183,8.0625 8.0625,8.0625h107.5c4.44067,0 8.0625,-3.62183 8.0625,-8.0625v-24.20849c0.91333,-0.49341 1.78467,-1.03931 2.65601,-1.58521l22.31885,22.31885c2.00513,2.00513 4.64014,3.01294 7.27515,3.01294c2.63501,0 5.27002,-1.00781 7.27515,-3.01294c4.01026,-4.01025 4.01026,-10.54004 0,-14.55029l-22.31885,-22.31885c4.39868,-7.02319 6.9812,-15.28516 6.9812,-24.15601c0,-17.42676 -9.80517,-32.58594 -24.1875,-40.2915v-29.5835c0,-4.44067 -3.62183,-8.0625 -8.0625,-8.0625zM43,16.125h77.9375c1.48022,0 2.6875,1.20728 2.6875,2.6875v27.17944c-5.01807,-1.90015 -10.44556,-2.99194 -16.125,-2.99194c-25.19531,0 -45.6875,20.49219 -45.6875,45.6875c0,25.19531 20.49219,45.6875 45.6875,45.6875c5.67944,0 11.10693,-1.0918 16.125,-2.99194v21.80444c0,1.48022 -1.20728,2.6875 -2.6875,2.6875h-107.5c-1.48022,0 -2.6875,-1.20728 -2.6875,-2.6875v-104.8125h24.1875c4.44067,0 8.0625,-3.62183 8.0625,-8.0625zM37.625,17.46875v22.84375c0,1.48022 -1.20728,2.6875 -2.6875,2.6875h-22.84375c0.30444,-0.45142 0.64038,-0.87134 1.01831,-1.24927l23.26367,-23.26367c0.38843,-0.38843 0.80835,-0.72436 1.24927,-1.01831zM107.5,48.375c22.22436,0 40.3125,18.08814 40.3125,40.3125c0,22.22436 -18.08814,40.3125 -40.3125,40.3125c-22.22436,0 -40.3125,-18.08814 -40.3125,-40.3125c0,-22.22436 18.08814,-40.3125 40.3125,-40.3125zM107.5,56.4375c-17.78369,0 -32.25,14.46631 -32.25,32.25c0,17.78369 14.46631,32.25 32.25,32.25c17.78369,0 32.25,-14.46631 32.25,-32.25c0,-17.78369 -14.46631,-32.25 -32.25,-32.25zM34.9375,59.125c-1.49072,0 -2.6875,1.19678 -2.6875,2.6875c0,1.49072 1.19678,2.6875 2.6875,2.6875h10.75c1.49072,0 2.6875,-1.19678 2.6875,-2.6875c0,-1.49072 -1.19678,-2.6875 -2.6875,-2.6875zM56.4375,59.125c-1.49072,0 -2.6875,1.19678 -2.6875,2.6875c0,1.49072 1.19678,2.6875 2.6875,2.6875h5.375c1.49072,0 2.6875,-1.19678 2.6875,-2.6875c0,-1.49072 -1.19678,-2.6875 -2.6875,-2.6875zM107.5,61.8125c14.82324,0 26.875,12.05176 26.875,26.875c0,14.82324 -12.05176,26.875 -26.875,26.875c-14.82324,0 -26.875,-12.05176 -26.875,-26.875c0,-14.82324 12.05176,-26.875 26.875,-26.875zM107.5,67.1875c-1.49072,0 -2.6875,1.19678 -2.6875,2.6875c0,1.49072 1.19678,2.6875 2.6875,2.6875c6.47729,0 12.30371,3.85278 14.83374,9.80518c0.44092,1.01831 1.43823,1.6272 2.47754,1.6272c0.35693,0 0.71387,-0.06299 1.0498,-0.20996c1.37524,-0.57739 2.00513,-2.1626 1.41724,-3.52734c-3.38037,-7.93652 -11.14892,-13.07007 -19.77832,-13.07007zM34.9375,69.875c-1.49072,0 -2.6875,1.19678 -2.6875,2.6875c0,1.49072 1.19678,2.6875 2.6875,2.6875h24.1875c1.49072,0 2.6875,-1.19678 2.6875,-2.6875c0,-1.49072 -1.19678,-2.6875 -2.6875,-2.6875zM34.9375,86c-1.49072,0 -2.6875,1.19678 -2.6875,2.6875c0,1.49072 1.19678,2.6875 2.6875,2.6875h18.8125c1.49072,0 2.6875,-1.19678 2.6875,-2.6875c0,-1.49072 -1.19678,-2.6875 -2.6875,-2.6875zM34.9375,96.75c-1.49072,0 -2.6875,1.19678 -2.6875,2.6875c0,1.49072 1.19678,2.6875 2.6875,2.6875h18.8125c1.49072,0 2.6875,-1.19678 2.6875,-2.6875c0,-1.49072 -1.19678,-2.6875 -2.6875,-2.6875zM143.06738,117.29468l21.65747,21.66797c1.92114,1.92114 1.92114,5.02857 0,6.94971c-1.92114,1.92114 -5.02857,1.92114 -6.94971,0l-21.66797,-21.65747c2.56152,-2.06811 4.89209,-4.39868 6.96021,-6.96021zM18.8125,139.75c-1.49072,0 -2.6875,1.19678 -2.6875,2.6875v5.375c0,1.49072 1.19678,2.6875 2.6875,2.6875c1.49072,0 2.6875,-1.19678 2.6875,-2.6875v-5.375c0,-1.49072 -1.19678,-2.6875 -2.6875,-2.6875zM32.25,139.75c-1.49072,0 -2.6875,1.19678 -2.6875,2.6875v5.375c0,1.49072 1.19678,2.6875 2.6875,2.6875c1.49072,0 2.6875,-1.19678 2.6875,-2.6875v-5.375c0,-1.49072 -1.19678,-2.6875 -2.6875,-2.6875zM45.6875,139.75c-1.49072,0 -2.6875,1.19678 -2.6875,2.6875v5.375c0,1.49072 1.19678,2.6875 2.6875,2.6875c1.49072,0 2.6875,-1.19678 2.6875,-2.6875v-5.375c0,-1.49072 -1.19678,-2.6875 -2.6875,-2.6875zM59.125,139.75c-1.49072,0 -2.6875,1.19678 -2.6875,2.6875v5.375c0,1.49072 1.19678,2.6875 2.6875,2.6875c1.49072,0 2.6875,-1.19678 2.6875,-2.6875v-5.375c0,-1.49072 -1.19678,-2.6875 -2.6875,-2.6875zM72.5625,139.75c-1.49072,0 -2.6875,1.19678 -2.6875,2.6875v5.375c0,1.49072 1.19678,2.6875 2.6875,2.6875c1.49072,0 2.6875,-1.19678 2.6875,-2.6875v-5.375c0,-1.49072 -1.19678,-2.6875 -2.6875,-2.6875zM86,139.75c-1.49072,0 -2.6875,1.19678 -2.6875,2.6875v5.375c0,1.49072 1.19678,2.6875 2.6875,2.6875c1.49072,0 2.6875,-1.19678 2.6875,-2.6875v-5.375c0,-1.49072 -1.19678,-2.6875 -2.6875,-2.6875zM99.4375,139.75c-1.49072,0 -2.6875,1.19678 -2.6875,2.6875v5.375c0,1.49072 1.19678,2.6875 2.6875,2.6875c1.49072,0 2.6875,-1.19678 2.6875,-2.6875v-5.375c0,-1.49072 -1.19678,-2.6875 -2.6875,-2.6875zM112.875,139.75c-1.49072,0 -2.6875,1.19678 -2.6875,2.6875v5.375c0,1.49072 1.19678,2.6875 2.6875,2.6875c1.49072,0 2.6875,-1.19678 2.6875,-2.6875v-5.375c0,-1.49072 -1.19678,-2.6875 -2.6875,-2.6875z"></path></g></g></svg>
