<svg xmlns="http://www.w3.org/2000/svg" x="0px" y="0px"
width="128" height="128"
viewBox="0 0 172 172"
style=" fill:#000000;"><g transform="translate(0.43,0.43) scale(0.995,0.995)"><g fill="none" fill-rule="nonzero" stroke="none" stroke-width="1" stroke-linecap="butt" stroke-linejoin="none" stroke-miterlimit="10" stroke-dasharray="" stroke-dashoffset="0" font-family="none" font-weight="none" font-size="none" text-anchor="none" style="mix-blend-mode: normal"><g fill="#000000" stroke="#cccccc" stroke-linejoin="round"><path d="M144.40064,35.00049c0.08398,0.10498 0.19946,0.17847 0.27295,0.29395c0.03149,0.04199 0.03149,0.08398 0.05249,0.11548c10.34058,13.22754 16.52392,29.85645 16.52392,47.90259c0,18.05664 -6.18335,34.67505 -16.53442,47.91309c-0.02099,0.03149 -0.02099,0.07349 -0.04199,0.10498c-0.06299,0.10498 -0.16797,0.16797 -0.25195,0.26245c-14.27734,18.04614 -36.35473,29.65698 -61.10913,29.65698c-24.59692,0 -46.55884,-11.46387 -60.84668,-29.31055c-0.19946,-0.17847 -0.37793,-0.36743 -0.5249,-0.59839c-0.04199,-0.05249 -0.03149,-0.10498 -0.06299,-0.15747c-10.33008,-13.22754 -16.50293,-29.83545 -16.50293,-47.87109c0,-18.02515 6.17285,-34.63306 16.48193,-47.8501c0.03149,-0.05249 0.04199,-0.12598 0.07348,-0.17847c0.10498,-0.16797 0.26245,-0.28345 0.39893,-0.41992c14.28784,-17.95166 36.30224,-29.48901 60.98315,-29.48901c24.7334,0 46.80029,11.60034 61.08814,29.62549zM51.56641,44.81616c8.96533,2.1311 18.8125,3.33838 29.05859,3.51685v-37.34155c-11.93628,1.72168 -22.72827,14.78125 -29.05859,33.82471zM86,48.33301c10.2356,-0.17847 20.09326,-1.38574 29.05859,-3.51685c-6.33032,-19.04346 -17.12232,-32.10303 -29.05859,-33.82471zM28.31323,36.05029c5.23853,2.96045 11.3169,5.42749 17.99365,7.36963c4.27271,-13.05957 10.58203,-23.52612 18.07764,-30.15039c-14.22485,3.85278 -26.71753,11.91528 -36.07129,22.78076zM120.31811,43.41992c6.67676,-1.94214 12.75513,-4.40918 17.99365,-7.35913c-9.35376,-10.87598 -21.84643,-18.94897 -36.07129,-22.79126c7.4956,6.62427 13.80493,17.09082 18.07764,30.15039zM10.75,83.3125c0,16.09351 5.28052,30.97974 14.17236,43.03149c5.74243,-3.34888 12.45068,-6.12036 19.84131,-8.27246c-1.77417,-6.51929 -3.08642,-13.57397 -3.81079,-21.05908c-0.13647,-1.48022 0.94483,-2.79248 2.42505,-2.93945c1.50122,-0.13647 2.79248,0.94483 2.93945,2.42505c0.69287,7.15967 1.97363,13.90991 3.69531,20.16675c9.45874,-2.27808 19.84131,-3.56934 30.6123,-3.7478v-16.16699c0,-1.48022 1.19678,-2.6875 2.6875,-2.6875c1.48022,0 2.6875,1.20728 2.6875,2.6875v16.16699c10.7605,0.17847 21.14307,1.46973 30.6123,3.7478c1.72168,-6.25684 3.00244,-13.01758 3.69531,-20.17724c0.14697,-1.48022 1.46973,-2.54053 2.93945,-2.41455c1.46973,0.14697 2.56152,1.45923 2.41455,2.92896c-0.72437,7.48511 -2.02613,14.53979 -3.81079,21.06958c7.39063,2.1416 14.09888,4.92358 19.84131,8.27246c8.90234,-12.05176 14.18286,-26.93799 14.18286,-43.03149c0,-16.09351 -5.27002,-30.97974 -14.17236,-43.03149c-5.74243,3.34888 -12.45068,6.13086 -19.84131,8.27246c1.77417,6.52979 3.07593,13.58447 3.80029,21.06958c0.14697,1.46973 -0.93433,2.78198 -2.41455,2.92896c-1.50122,0.13647 -2.79248,-0.93433 -2.93945,-2.41455c-0.68237,-7.15967 -1.97363,-13.92041 -3.69531,-20.17724c-9.45874,2.27808 -19.84131,3.56934 -30.6123,3.7478v16.16699c0,1.48022 -1.19678,2.6875 -2.6875,2.6875c-1.48022,0 -2.6875,-1.20728 -2.6875,-2.6875v-16.16699c-10.7605,-0.18896 -21.14307,-1.46973 -30.6123,-3.7478c-1.72168,6.25684 -3.00244,13.00708 -3.69531,20.16675c-0.13647,1.39624 -1.31226,2.43555 -2.677,2.43555c-0.08398,0 -0.16797,0 -0.26245,-0.0105c-1.46973,-0.14697 -2.56152,-1.45923 -2.41455,-2.92896c0.72436,-7.48511 2.02612,-14.53979 3.81079,-21.06958c-7.39062,-2.1416 -14.09887,-4.92358 -19.8518,-8.27246c-8.89185,12.05176 -14.17236,26.93799 -14.17236,43.03149zM18.8125,80.625v5.375c0,1.48022 -1.20728,2.6875 -2.6875,2.6875c-1.48022,0 -2.6875,-1.20728 -2.6875,-2.6875v-5.375c0,-1.48022 1.20728,-2.6875 2.6875,-2.6875c1.48022,0 2.6875,1.20728 2.6875,2.6875zM32.25,80.625v5.375c0,1.48022 -1.20728,2.6875 -2.6875,2.6875c-1.48022,0 -2.6875,-1.20728 -2.6875,-2.6875v-5.375c0,-1.48022 1.20728,-2.6875 2.6875,-2.6875c1.48022,0 2.6875,1.20728 2.6875,2.6875zM45.6875,80.625v5.375c0,1.48022 -1.20728,2.6875 -2.6875,2.6875c-1.48022,0 -2.6875,-1.20728 -2.6875,-2.6875v-5.375c0,-1.48022 1.20728,-2.6875 2.6875,-2.6875c1.48022,0 2.6875,1.20728 2.6875,2.6875zM59.125,80.625v5.375c0,1.48022 -1.20728,2.6875 -2.6875,2.6875c-1.48022,0 -2.6875,-1.20728 -2.6875,-2.6875v-5.375c0,-1.48022 1.20728,-2.6875 2.6875,-2.6875c1.48022,0 2.6875,1.20728 2.6875,2.6875zM72.5625,80.625v5.375c0,1.48022 -1.20728,2.6875 -2.6875,2.6875c-1.48022,0 -2.6875,-1.20728 -2.6875,-2.6875v-5.375c0,-1.48022 1.20728,-2.6875 2.6875,-2.6875c1.48022,0 2.6875,1.20728 2.6875,2.6875zM86,80.625v5.375c0,1.48022 -1.20728,2.6875 -2.6875,2.6875c-1.48022,0 -2.6875,-1.20728 -2.6875,-2.6875v-5.375c0,-1.48022 1.20728,-2.6875 2.6875,-2.6875c1.48022,0 2.6875,1.20728 2.6875,2.6875zM99.4375,80.625v5.375c0,1.48022 -1.20728,2.6875 -2.6875,2.6875c-1.48022,0 -2.6875,-1.20728 -2.6875,-2.6875v-5.375c0,-1.48022 1.20728,-2.6875 2.6875,-2.6875c1.48022,0 2.6875,1.20728 2.6875,2.6875zM112.875,80.625v5.375c0,1.48022 -1.20728,2.6875 -2.6875,2.6875c-1.48022,0 -2.6875,-1.20728 -2.6875,-2.6875v-5.375c0,-1.48022 1.20728,-2.6875 2.6875,-2.6875c1.48022,0 2.6875,1.20728 2.6875,2.6875zM126.3125,80.625v5.375c0,1.48022 -1.20728,2.6875 -2.6875,2.6875c-1.48022,0 -2.6875,-1.20728 -2.6875,-2.6875v-5.375c0,-1.48022 1.20728,-2.6875 2.6875,-2.6875c1.48022,0 2.6875,1.20728 2.6875,2.6875zM139.75,80.625v5.375c0,1.48022 -1.20728,2.6875 -2.6875,2.6875c-1.48022,0 -2.6875,-1.20728 -2.6875,-2.6875v-5.375c0,-1.48022 1.20728,-2.6875 2.6875,-2.6875c1.48022,0 2.6875,1.20728 2.6875,2.6875zM153.1875,80.625v5.375c0,1.48022 -1.20728,2.6875 -2.6875,2.6875c-1.48022,0 -2.6875,-1.20728 -2.6875,-2.6875v-5.375c0,-1.48022 1.20728,-2.6875 2.6875,-2.6875c1.48022,0 2.6875,1.20728 2.6875,2.6875zM51.56641,121.80884c6.33032,19.04346 17.12232,32.10303 29.05859,33.82471v-37.34155c-10.2356,0.17847 -20.09326,1.38574 -29.05859,3.51685zM86,155.63354c11.93628,-1.72168 22.72827,-14.78125 29.05859,-33.82471c-8.96533,-2.1311 -18.8125,-3.33838 -29.05859,-3.51685zM28.31323,130.56421c9.35376,10.87598 21.84644,18.94898 36.07129,22.79126c-7.4956,-6.62427 -13.80493,-17.09082 -18.07764,-30.15039c-6.67676,1.94214 -12.75513,4.40918 -17.99365,7.35913zM102.24048,153.35547c14.22485,-3.85278 26.71753,-11.91528 36.07129,-22.78076c-5.23853,-2.96045 -11.3169,-5.42749 -17.99365,-7.36963c-4.2727,13.05957 -10.58203,23.52612 -18.07764,30.15039z"></path></g><path d="M0,172v-172h172v172z" fill="none" stroke="none" stroke-linejoin="miter"></path><g fill="#F16A6E" stroke="none" stroke-linejoin="miter"><path d="M83.3125,5.375c-24.68091,0 -46.69531,11.53735 -60.98315,29.48901c-0.13647,0.13648 -0.29395,0.25195 -0.39893,0.41992c-0.03149,0.05249 -0.04199,0.12598 -0.07348,0.17847c-10.30908,13.21704 -16.48193,29.82495 -16.48193,47.8501c0,18.03565 6.17285,34.64355 16.50293,47.87109c0.03149,0.05249 0.021,0.10498 0.06299,0.15747c0.14697,0.23096 0.32544,0.41992 0.5249,0.59839c14.28784,17.84668 36.24976,29.31055 60.84668,29.31055c24.7544,0 46.83179,-11.61084 61.10913,-29.65698c0.08398,-0.09448 0.18897,-0.15747 0.25195,-0.26245c0.021,-0.03149 0.021,-0.07349 0.04199,-0.10498c10.35108,-13.23804 16.53442,-29.85645 16.53442,-47.91309c0,-18.04614 -6.18335,-34.67505 -16.52392,-47.90259c-0.021,-0.03149 -0.021,-0.07348 -0.05249,-0.11548c-0.07348,-0.11548 -0.18896,-0.18897 -0.27295,-0.29395c-14.28784,-18.02515 -36.35474,-29.62549 -61.08814,-29.62549zM80.625,10.99146v37.34155c-10.24609,-0.17847 -20.09326,-1.38574 -29.05859,-3.51685c6.33032,-19.04346 17.12232,-32.10303 29.05859,-33.82471zM86,10.99146c11.93628,1.72168 22.72827,14.78125 29.05859,33.82471c-8.96533,2.1311 -18.823,3.33838 -29.05859,3.51685zM64.38452,13.26953c-7.4956,6.62427 -13.80493,17.09082 -18.07764,30.15039c-6.67676,-1.94214 -12.75513,-4.40918 -17.99365,-7.36963c9.35376,-10.86548 21.84644,-18.92798 36.07129,-22.78076zM102.24048,13.26953c14.22485,3.84229 26.71753,11.91528 36.07129,22.79126c-5.23853,2.94995 -11.3169,5.41699 -17.99365,7.35913c-4.2727,-13.05957 -10.58203,-23.52612 -18.07764,-30.15039zM24.92236,40.28101c5.75293,3.34888 12.46118,6.13086 19.8518,8.27246c-1.78467,6.52979 -3.08642,13.58447 -3.81079,21.06958c-0.14697,1.46973 0.94482,2.78198 2.41455,2.92896c0.09448,0.0105 0.17847,0.0105 0.26245,0.0105c1.36475,0 2.54053,-1.03931 2.677,-2.43555c0.69287,-7.15967 1.97363,-13.90991 3.69531,-20.16675c9.46924,2.27808 19.85181,3.55884 30.6123,3.7478v16.16699c0,1.48022 1.20728,2.6875 2.6875,2.6875c1.49072,0 2.6875,-1.20728 2.6875,-2.6875v-16.16699c10.771,-0.17847 21.15357,-1.46973 30.6123,-3.7478c1.72168,6.25684 3.01294,13.01758 3.69531,20.17724c0.14697,1.48023 1.43823,2.55103 2.93945,2.41455c1.48022,-0.14697 2.56152,-1.45923 2.41455,-2.92896c-0.72437,-7.48511 -2.02613,-14.53979 -3.80029,-21.06958c7.39063,-2.1416 14.09888,-4.92358 19.84131,-8.27246c8.90234,12.05176 14.17236,26.93799 14.17236,43.03149c0,16.09351 -5.28052,30.97974 -14.18286,43.03149c-5.74243,-3.34888 -12.45068,-6.13086 -19.84131,-8.27246c1.78467,-6.52979 3.08642,-13.58447 3.81079,-21.06958c0.14697,-1.46973 -0.94483,-2.78198 -2.41455,-2.92896c-1.46973,-0.12598 -2.79248,0.93433 -2.93945,2.41455c-0.69287,7.15967 -1.97363,13.92041 -3.69531,20.17724c-9.46924,-2.27808 -19.85181,-3.56934 -30.6123,-3.7478v-16.16699c0,-1.48022 -1.20728,-2.6875 -2.6875,-2.6875c-1.49072,0 -2.6875,1.20728 -2.6875,2.6875v16.16699c-10.77099,0.17847 -21.15357,1.46973 -30.6123,3.7478c-1.72168,-6.25684 -3.00244,-13.00708 -3.69531,-20.16675c-0.14697,-1.48022 -1.43823,-2.56152 -2.93945,-2.42505c-1.48022,0.14697 -2.56152,1.45923 -2.42505,2.93945c0.72437,7.48511 2.03662,14.5398 3.81079,21.05908c-7.39062,2.1521 -14.09888,4.92358 -19.84131,8.27246c-8.89185,-12.05176 -14.17236,-26.93799 -14.17236,-43.03149c0,-16.09351 5.28052,-30.97974 14.17236,-43.03149zM16.125,77.9375c-1.48022,0 -2.6875,1.20728 -2.6875,2.6875v5.375c0,1.48022 1.20728,2.6875 2.6875,2.6875c1.48022,0 2.6875,-1.20728 2.6875,-2.6875v-5.375c0,-1.48022 -1.20728,-2.6875 -2.6875,-2.6875zM29.5625,77.9375c-1.48022,0 -2.6875,1.20728 -2.6875,2.6875v5.375c0,1.48022 1.20728,2.6875 2.6875,2.6875c1.48022,0 2.6875,-1.20728 2.6875,-2.6875v-5.375c0,-1.48022 -1.20728,-2.6875 -2.6875,-2.6875zM43,77.9375c-1.48022,0 -2.6875,1.20728 -2.6875,2.6875v5.375c0,1.48022 1.20728,2.6875 2.6875,2.6875c1.48022,0 2.6875,-1.20728 2.6875,-2.6875v-5.375c0,-1.48022 -1.20728,-2.6875 -2.6875,-2.6875zM56.4375,77.9375c-1.48022,0 -2.6875,1.20728 -2.6875,2.6875v5.375c0,1.48022 1.20728,2.6875 2.6875,2.6875c1.48022,0 2.6875,-1.20728 2.6875,-2.6875v-5.375c0,-1.48022 -1.20728,-2.6875 -2.6875,-2.6875zM69.875,77.9375c-1.48022,0 -2.6875,1.20728 -2.6875,2.6875v5.375c0,1.48022 1.20728,2.6875 2.6875,2.6875c1.48022,0 2.6875,-1.20728 2.6875,-2.6875v-5.375c0,-1.48022 -1.20728,-2.6875 -2.6875,-2.6875zM83.3125,77.9375c-1.48022,0 -2.6875,1.20728 -2.6875,2.6875v5.375c0,1.48022 1.20728,2.6875 2.6875,2.6875c1.48022,0 2.6875,-1.20728 2.6875,-2.6875v-5.375c0,-1.48022 -1.20728,-2.6875 -2.6875,-2.6875zM96.75,77.9375c-1.48022,0 -2.6875,1.20728 -2.6875,2.6875v5.375c0,1.48022 1.20728,2.6875 2.6875,2.6875c1.48022,0 2.6875,-1.20728 2.6875,-2.6875v-5.375c0,-1.48022 -1.20728,-2.6875 -2.6875,-2.6875zM110.1875,77.9375c-1.48022,0 -2.6875,1.20728 -2.6875,2.6875v5.375c0,1.48022 1.20728,2.6875 2.6875,2.6875c1.48022,0 2.6875,-1.20728 2.6875,-2.6875v-5.375c0,-1.48022 -1.20728,-2.6875 -2.6875,-2.6875zM123.625,77.9375c-1.48022,0 -2.6875,1.20728 -2.6875,2.6875v5.375c0,1.48022 1.20728,2.6875 2.6875,2.6875c1.48022,0 2.6875,-1.20728 2.6875,-2.6875v-5.375c0,-1.48022 -1.20728,-2.6875 -2.6875,-2.6875zM137.0625,77.9375c-1.48022,0 -2.6875,1.20728 -2.6875,2.6875v5.375c0,1.48022 1.20728,2.6875 2.6875,2.6875c1.48022,0 2.6875,-1.20728 2.6875,-2.6875v-5.375c0,-1.48022 -1.20728,-2.6875 -2.6875,-2.6875zM150.5,77.9375c-1.48022,0 -2.6875,1.20728 -2.6875,2.6875v5.375c0,1.48022 1.20728,2.6875 2.6875,2.6875c1.48022,0 2.6875,-1.20728 2.6875,-2.6875v-5.375c0,-1.48022 -1.20728,-2.6875 -2.6875,-2.6875zM80.625,118.29199v37.34155c-11.93628,-1.72168 -22.72827,-14.78125 -29.05859,-33.82471c8.96533,-2.1311 18.823,-3.33838 29.05859,-3.51685zM86,118.29199c10.24609,0.17847 20.09326,1.38574 29.05859,3.51685c-6.33032,19.04346 -17.12232,32.10303 -29.05859,33.82471zM46.30689,123.20508c4.27271,13.05957 10.58203,23.52612 18.07764,30.15039c-14.22485,-3.84228 -26.71753,-11.91528 -36.07129,-22.79126c5.23853,-2.94995 11.3169,-5.41699 17.99365,-7.35913zM120.31811,123.20508c6.67676,1.94214 12.75513,4.40918 17.99365,7.36963c-9.35376,10.86548 -21.84643,18.92798 -36.07129,22.78076c7.4956,-6.62427 13.80493,-17.09082 18.07764,-30.15039z"></path></g><path d="" fill="none" stroke="none" stroke-linejoin="miter"></path></g></g></svg>
