<svg xmlns="http://www.w3.org/2000/svg" x="0px" y="0px"
width="128" height="128"
viewBox="0 0 172 172"
style=" fill:#000000;"><g fill="none" fill-rule="nonzero" stroke="none" stroke-width="1" stroke-linecap="butt" stroke-linejoin="miter" stroke-miterlimit="10" stroke-dasharray="" stroke-dashoffset="0" font-family="none" font-weight="none" font-size="none" text-anchor="none" style="mix-blend-mode: normal"><path d="M0,172v-172h172v172z" fill="none"></path><g fill="#F16A6E"><path d="M49.61902,15.92554c-11.38828,0 -22.74192,4.36719 -31.34192,13.10156c-8.6,8.6 -12.9021,19.6156 -12.9021,31.70935c0,11.825 4.2979,23.11565 12.62915,31.4469l10.96521,10.90222c-1.69044,4.36719 -0.79369,9.51539 2.72424,13.03332c2.37575,2.37575 5.49602,3.56409 8.6189,3.56409c0.46494,0 0.92349,-0.08016 1.38574,-0.13123c-0.40581,3.56631 0.70236,7.27414 3.43286,10.00464c2.37575,2.37575 5.49602,3.56409 8.6189,3.56409c0.46494,0 0.92349,-0.08016 1.38574,-0.13123c-0.40581,3.56631 0.70236,7.27414 3.43286,10.00464c2.37575,2.37575 5.49602,3.56409 8.6189,3.56409c0.46494,0 0.92349,-0.08016 1.38574,-0.13123c-0.40581,3.56631 0.70236,7.27414 3.43286,10.00464c2.37575,2.37575 5.49602,3.56409 8.6189,3.56409c3.12287,0 6.24315,-1.18834 8.6189,-3.56409l13.7157,-13.7157c0.58319,-0.58319 1.10234,-1.22033 1.54846,-1.8949c1.806,1.02125 3.82645,1.6167 5.95764,1.6167c3.25725,0 6.3184,-1.26615 8.6189,-3.56934c2.30319,-2.3005 3.57458,-5.36165 3.57458,-8.6189c0,-0.47031 -0.08541,-0.92618 -0.13647,-1.38574c0.45956,0.05106 0.91287,0.13647 1.38049,0.13647c3.25725,0 6.3184,-1.26615 8.6189,-3.56934c2.30319,-2.3005 3.57458,-5.36165 3.57458,-8.6189c0,-0.47031 -0.08541,-0.92618 -0.13647,-1.38574c0.45956,0.05106 0.91287,0.13647 1.38049,0.13647c3.25725,0 6.3184,-1.26615 8.6189,-3.56934c2.17419,-2.1715 3.53087,-5.38399 3.71631,-8.80786c0.11825,-2.17419 -0.29424,-4.20165 -1.06555,-5.8894l5.11255,-5.11255c8.33125,-8.6 12.9021,-19.6219 12.9021,-31.4469c0,-12.09375 -4.57085,-23.10935 -12.9021,-31.70935c-17.46875,-17.46875 -45.6833,-17.46875 -62.8833,0l-1.24927,1.24402c-0.03494,0.03225 -0.07529,0.0438 -0.11023,0.07874c-0.03225,0.03225 -1.4064,1.39548 -3.54834,3.44336l-4.77136,-4.76611c-8.73437,-8.73437 -20.1531,-13.10156 -31.54138,-13.10156zM122.28125,21.30054c10.01094,0 20.02397,3.82549 27.68335,11.48486c7.25625,7.525 11.2854,17.4698 11.2854,27.95105c0,10.48125 -4.03335,20.1594 -11.55835,27.41565l-4.67163,4.69263l-22.17713,-22.17712l-0.00525,-0.00525l-5.41174,-5.41174c-8.77469,-8.77469 -22.27845,-10.36178 -32.84839,-3.85803l-7.85254,4.8291c-5.58463,3.43462 -12.77692,2.99077 -17.89392,-1.10229c-0.16125,-0.13169 -0.18909,-0.29655 -0.18371,-0.40942c0.00538,-0.11288 0.04577,-0.27811 0.22046,-0.39368c0.08063,-0.05644 0.16095,-0.11666 0.23621,-0.17847l17.75744,-14.90198c5.40456,-4.5365 10.78586,-9.62041 13.84692,-12.57666l0.13123,-0.11023l0.44092,-0.44092c1.23087,-1.19594 1.97044,-1.93895 1.99463,-1.96314c0.03225,-0.03225 0.04649,-0.07529 0.07874,-0.11023l1.24402,-1.24927c7.65937,-7.65938 17.67241,-11.48486 27.68335,-11.48486zM49.45105,21.5c9.94375,0 20.1531,3.7646 27.6781,11.55835l4.65064,4.64539c-2.53432,2.3435 -5.45344,4.96318 -8.37744,7.41687l-17.65771,14.82324c-1.49425,1.05619 -2.3891,2.69691 -2.46704,4.53516c-0.08331,1.892 0.71853,3.6571 2.19934,4.8396c6.88269,5.50938 16.55521,6.11066 24.06677,1.48547l7.84729,-4.8291c8.43875,-5.19225 19.22831,-3.93039 26.23462,3.07593l0.03674,0.03674l5.375,5.375l24.1875,24.1875c0.62081,0.62081 1.19417,2.17184 1.0813,4.24121c-0.11556,2.11775 -0.89716,4.05183 -2.14685,5.30151c-2.57462,2.57462 -7.06258,2.57462 -9.63721,0l-20.43445,-20.4397c-1.05081,-1.05081 -2.74948,-1.05081 -3.80029,0c-1.05081,1.05081 -1.05081,2.74948 0,3.80029l20.43445,20.4397c1.28731,1.28731 1.99988,2.99917 1.99988,4.8186c0,1.81944 -0.71257,3.53129 -1.99988,4.8186c-2.57462,2.57462 -7.06258,2.57462 -9.63721,0l-20.43445,-20.4397c-1.05081,-1.05081 -2.74948,-1.05081 -3.80029,0c-1.05081,1.05081 -1.05081,2.74948 0,3.80029l20.43445,20.4397c1.28731,1.28731 1.99988,2.99917 1.99988,4.8186c0,1.81944 -0.71257,3.53129 -1.99988,4.8186c-2.34888,2.34888 -6.27922,2.52558 -8.90759,0.58789c0.06719,-0.516 0.15747,-1.02683 0.15747,-1.55896c0,-3.25725 -1.2714,-6.3184 -3.57458,-8.6189c-2.3005,-2.30319 -5.36165,-3.57458 -8.6189,-3.57458c-0.47031,0 -0.92093,0.08541 -1.38049,0.13647c0.05106,-0.45956 0.13647,-0.91287 0.13647,-1.38049c0,-3.25725 -1.2714,-6.3184 -3.57458,-8.6189c-2.3005,-2.30319 -5.36165,-3.57458 -8.6189,-3.57458c-0.47031,0 -0.92093,0.08541 -1.38049,0.13647c0.05106,-0.45956 0.13647,-0.91287 0.13647,-1.38049c0,-3.25725 -1.2714,-6.3184 -3.57458,-8.6189c-2.3005,-2.30319 -5.36165,-3.57458 -8.6189,-3.57458c-0.47031,0 -0.92093,0.08541 -1.38049,0.13647c0.05106,-0.45956 0.13647,-0.91287 0.13647,-1.38049c0,-3.25725 -1.2714,-6.3184 -3.57458,-8.6189c-2.3005,-2.30319 -5.36165,-3.57458 -8.6189,-3.57458c-3.25456,0 -6.3184,1.2714 -8.6189,3.57458l-13.29053,13.29053l-10.35107,-10.30383c-7.25625,-7.25625 -11.5531,-17.2021 -11.5531,-27.68335c0,-10.48125 4.2958,-20.15415 11.8208,-27.4104c7.525,-7.79375 17.4719,-11.55835 27.41565,-11.55835zM23.55237,58.97278l-5.36975,0.2677c-1.4835,0.07256 -2.62884,1.32998 -2.55627,2.81348c0.06988,1.43781 1.25788,2.55627 2.68225,2.55627c0.04569,0 0.09079,-0.00525 0.13647,-0.00525l5.36975,-0.26245c1.4835,-0.07256 2.62359,-1.32998 2.55103,-2.81348c-0.07256,-1.4835 -1.36491,-2.62884 -2.81348,-2.55627zM26.79626,70.55737c-0.34644,0.04287 -0.69191,0.15575 -1.01306,0.34119l-4.65588,2.6875c-1.28731,0.74175 -1.72857,2.38444 -0.98682,3.66907c0.49719,0.86269 1.40069,1.34375 2.33057,1.34375c0.45419,0 0.91913,-0.11506 1.34375,-0.35693l4.65588,-2.6875c1.28731,-0.74175 1.72857,-2.38969 0.98682,-3.67432c-0.55632,-0.96548 -1.62195,-1.45138 -2.66126,-1.32276zM35.4519,80.12109c-0.688,0.00067 -1.37608,0.26585 -1.90015,0.7926l-3.79504,3.80554c-1.04813,1.0535 -1.04556,2.75217 0.00525,3.80029c0.52406,0.52138 1.20958,0.78735 1.8949,0.78735c0.688,0 1.37864,-0.2606 1.90539,-0.78735l3.79505,-3.81079c1.04812,-1.0535 1.04556,-2.75217 -0.00525,-3.80029c-0.52675,-0.52406 -1.21215,-0.78803 -1.90015,-0.78735zM54.0282,86.96582c1.81944,0 3.53129,0.71257 4.8186,1.99988c1.28731,1.28731 1.99988,2.99916 1.99988,4.8186c0,1.81944 -0.71257,3.53129 -1.99988,4.8186l-13.7157,13.7157c-2.65525,2.65525 -6.98196,2.65525 -9.63721,0c-2.65794,-2.65794 -2.65794,-6.97927 0,-9.63721l13.7157,-13.7157c1.28731,-1.28731 2.99917,-1.99988 4.8186,-1.99988zM67.4657,100.40332c1.81944,0 3.53129,0.71257 4.8186,1.99988c1.28731,1.28731 1.99988,2.99916 1.99988,4.8186c0,1.81944 -0.71257,3.53129 -1.99988,4.8186l-13.7157,13.7157c-2.65525,2.65525 -6.98196,2.65525 -9.63721,0c-2.65794,-2.65794 -2.65794,-6.97927 0,-9.63721l13.7157,-13.7157c1.28731,-1.28731 2.99917,-1.99988 4.8186,-1.99988zM80.9032,113.84082c1.81944,0 3.53129,0.71257 4.8186,1.99988c1.28731,1.28731 1.99988,2.99916 1.99988,4.8186c0,1.81944 -0.71257,3.53129 -1.99988,4.8186l-13.7157,13.7157c-2.65525,2.65525 -6.98196,2.65525 -9.63721,0c-2.65794,-2.65794 -2.65794,-6.97927 0,-9.63721l13.7157,-13.7157c1.28731,-1.28731 2.99917,-1.99988 4.8186,-1.99988zM94.3407,127.27832c1.81944,0 3.53129,0.71257 4.8186,1.99988c1.28731,1.28731 1.99988,2.99916 1.99988,4.8186c0,1.81944 -0.71257,3.53129 -1.99988,4.8186l-13.7157,13.7157c-2.65525,2.65525 -6.98196,2.65525 -9.63721,0c-2.65794,-2.65794 -2.65794,-6.97927 0,-9.63721l13.7157,-13.7157c1.28731,-1.28731 2.99917,-1.99988 4.8186,-1.99988z"></path></g></g></svg>
