<svg xmlns="http://www.w3.org/2000/svg" x="0px" y="0px"
width="128" height="128"
viewBox="0 0 172 172"
style=" fill:#000000;"><g fill="none" fill-rule="nonzero" stroke="none" stroke-width="1" stroke-linecap="butt" stroke-linejoin="miter" stroke-miterlimit="10" stroke-dasharray="" stroke-dashoffset="0" font-family="none" font-weight="none" font-size="none" text-anchor="none" style="mix-blend-mode: normal"><path d="M0,172v-172h172v172z" fill="none"></path><g fill="#F16A6E"><path d="M13.4375,10.75c-4.44067,0 -8.0625,3.62183 -8.0625,8.0625v107.5c0,4.44067 3.62183,8.0625 8.0625,8.0625h51.0625v5.375h-19.72583c-3.60083,0 -6.9602,1.39624 -9.51123,3.92627l-13.76294,13.78393c-1.53271,1.53271 -1.98413,3.84228 -1.15478,5.85791c0.82934,2.01563 2.77148,3.30689 4.94458,3.30689h121.42041c2.1731,0 4.11523,-1.29126 4.94458,-3.30689c0.82934,-2.01562 0.37793,-4.3252 -1.15479,-5.85791l-13.76294,-13.78393c-2.55102,-2.53003 -5.9104,-3.92627 -9.51123,-3.92627h-19.72583v-5.375h51.0625c4.44067,0 8.0625,-3.62183 8.0625,-8.0625v-107.5c0,-4.44067 -3.62183,-8.0625 -8.0625,-8.0625zM13.4375,16.125h145.125c1.48022,0 2.6875,1.20728 2.6875,2.6875v107.5c0,1.48022 -1.20728,2.6875 -2.6875,2.6875h-145.125c-1.48022,0 -2.6875,-1.20728 -2.6875,-2.6875v-107.5c0,-1.48022 1.20728,-2.6875 2.6875,-2.6875zM24.1875,26.875c-1.48022,0 -2.6875,1.19678 -2.6875,2.6875v86c0,1.49072 1.20728,2.6875 2.6875,2.6875h123.625c1.48022,0 2.6875,-1.19678 2.6875,-2.6875v-86c0,-1.49072 -1.20728,-2.6875 -2.6875,-2.6875zM26.875,32.25h118.25v80.625h-118.25zM64.5,43c-0.68237,0 -1.37524,0.26245 -1.90015,0.78735l-21.5,21.5c-1.0498,1.0498 -1.0498,2.75049 0,3.80029l21.5,21.5c0.5249,0.5249 1.20728,0.78735 1.90015,0.78735c0.69287,0 1.37524,-0.26245 1.90015,-0.78735c1.0498,-1.0498 1.0498,-2.75049 0,-3.80029l-19.59985,-19.59985l19.59985,-19.59985c1.0498,-1.0498 1.0498,-2.75049 0,-3.80029c-0.5249,-0.5249 -1.21777,-0.78735 -1.90015,-0.78735zM107.5,43c-0.68237,0 -1.37524,0.26245 -1.90015,0.78735c-1.0498,1.0498 -1.0498,2.75049 0,3.80029l19.59985,19.59985l-19.59985,19.59985c-1.0498,1.0498 -1.0498,2.75049 0,3.80029c0.5249,0.5249 1.20728,0.78735 1.90015,0.78735c0.69287,0 1.37524,-0.26245 1.90015,-0.78735l21.5,-21.5c1.0498,-1.0498 1.0498,-2.75049 0,-3.80029l-21.5,-21.5c-0.5249,-0.5249 -1.21777,-0.78735 -1.90015,-0.78735zM32.25,96.75c-1.48022,0 -2.6875,1.19678 -2.6875,2.6875v5.375c0,1.49072 1.20728,2.6875 2.6875,2.6875c1.48022,0 2.6875,-1.19678 2.6875,-2.6875v-5.375c0,-1.49072 -1.20728,-2.6875 -2.6875,-2.6875zM45.6875,96.75c-1.48022,0 -2.6875,1.19678 -2.6875,2.6875v5.375c0,1.49072 1.20728,2.6875 2.6875,2.6875c1.48022,0 2.6875,-1.19678 2.6875,-2.6875v-5.375c0,-1.49072 -1.20728,-2.6875 -2.6875,-2.6875zM59.125,96.75c-1.48022,0 -2.6875,1.19678 -2.6875,2.6875v5.375c0,1.49072 1.20728,2.6875 2.6875,2.6875c1.48022,0 2.6875,-1.19678 2.6875,-2.6875v-5.375c0,-1.49072 -1.20728,-2.6875 -2.6875,-2.6875zM72.5625,96.75c-1.48022,0 -2.6875,1.19678 -2.6875,2.6875v5.375c0,1.49072 1.20728,2.6875 2.6875,2.6875c1.48022,0 2.6875,-1.19678 2.6875,-2.6875v-5.375c0,-1.49072 -1.20728,-2.6875 -2.6875,-2.6875zM86,96.75c-1.48022,0 -2.6875,1.19678 -2.6875,2.6875v5.375c0,1.49072 1.20728,2.6875 2.6875,2.6875c1.48022,0 2.6875,-1.19678 2.6875,-2.6875v-5.375c0,-1.49072 -1.20728,-2.6875 -2.6875,-2.6875zM99.4375,96.75c-1.48022,0 -2.6875,1.19678 -2.6875,2.6875v5.375c0,1.49072 1.20728,2.6875 2.6875,2.6875c1.48022,0 2.6875,-1.19678 2.6875,-2.6875v-5.375c0,-1.49072 -1.20728,-2.6875 -2.6875,-2.6875zM112.875,96.75c-1.48022,0 -2.6875,1.19678 -2.6875,2.6875v5.375c0,1.49072 1.20728,2.6875 2.6875,2.6875c1.48022,0 2.6875,-1.19678 2.6875,-2.6875v-5.375c0,-1.49072 -1.20728,-2.6875 -2.6875,-2.6875zM126.3125,96.75c-1.48022,0 -2.6875,1.19678 -2.6875,2.6875v5.375c0,1.49072 1.20728,2.6875 2.6875,2.6875c1.48022,0 2.6875,-1.19678 2.6875,-2.6875v-5.375c0,-1.49072 -1.20728,-2.6875 -2.6875,-2.6875zM139.75,96.75c-1.48022,0 -2.6875,1.19678 -2.6875,2.6875v5.375c0,1.49072 1.20728,2.6875 2.6875,2.6875c1.48022,0 2.6875,-1.19678 2.6875,-2.6875v-5.375c0,-1.49072 -1.20728,-2.6875 -2.6875,-2.6875zM69.875,134.375h32.25v16.125h-32.25zM44.77417,145.125h19.72583v5.375c0,2.96045 2.41455,5.375 5.375,5.375h32.25c2.96045,0 5.375,-2.41455 5.375,-5.375v-5.375h19.72583c2.1206,0 4.22021,0.86084 5.70044,2.36206l13.78393,13.76294h-121.42041l13.78394,-13.76294c1.48022,-1.50122 3.57983,-2.36206 5.70044,-2.36206z"></path></g></g></svg>
