<svg xmlns="http://www.w3.org/2000/svg" x="0px" y="0px"
width="128" height="128"
viewBox="0 0 172 172"
style=" fill:#000000;"><g fill="none" fill-rule="nonzero" stroke="none" stroke-width="1" stroke-linecap="butt" stroke-linejoin="miter" stroke-miterlimit="10" stroke-dasharray="" stroke-dashoffset="0" font-family="none" font-weight="none" font-size="none" text-anchor="none" style="mix-blend-mode: normal"><path d="M0,172v-172h172v172z" fill="none"></path><g fill="#068466"><path d="M8.0625,21.5c-4.44067,0 -8.0625,3.62183 -8.0625,8.0625v96.75c0,4.44067 3.62183,8.0625 8.0625,8.0625h61.8125v10.75h-6.29883c-3.59033,0 -6.96021,1.39624 -9.50073,3.93677l-7.60059,7.60059c-0.76636,0.76636 -0.99732,1.92114 -0.57739,2.92896c0.40942,1.00781 1.39624,1.65869 2.47754,1.65869h75.25c1.0813,0 2.06811,-0.65088 2.47754,-1.65869c0.41992,-1.00781 0.18897,-2.1626 -0.57739,-2.92896l-7.60059,-7.60059c-2.54053,-2.54053 -5.9104,-3.93677 -9.50073,-3.93677h-6.29883v-10.75h61.8125c4.44067,0 8.0625,-3.62183 8.0625,-8.0625v-96.75c0,-4.44067 -3.62183,-8.0625 -8.0625,-8.0625zM8.0625,26.875h155.875c1.48022,0 2.6875,1.20728 2.6875,2.6875v83.3125h-8.0625c-1.49072,0 -2.6875,1.19678 -2.6875,2.6875c0,1.49072 1.19678,2.6875 2.6875,2.6875h8.0625v8.0625c0,1.48022 -1.20728,2.6875 -2.6875,2.6875h-155.875c-1.48022,0 -2.6875,-1.20728 -2.6875,-2.6875v-8.0625h99.65796c1.49072,0 2.6875,-1.19678 2.6875,-2.6875c0,-1.49072 -1.19678,-2.6875 -2.6875,-2.6875h-99.65796v-83.3125c0,-1.48022 1.20728,-2.6875 2.6875,-2.6875zM13.4375,32.25c-1.49072,0 -2.6875,1.19678 -2.6875,2.6875c0,1.49072 1.19678,2.6875 2.6875,2.6875h123.625c1.49072,0 2.6875,-1.19678 2.6875,-2.6875c0,-1.49072 -1.19678,-2.6875 -2.6875,-2.6875zM147.8125,32.25c-1.49072,0 -2.6875,1.19678 -2.6875,2.6875c0,1.49072 1.19678,2.6875 2.6875,2.6875h10.75c1.49072,0 2.6875,-1.19678 2.6875,-2.6875c0,-1.49072 -1.19678,-2.6875 -2.6875,-2.6875zM21.5,48.375c-2.96045,0 -5.375,2.41455 -5.375,5.375v5.375c0,2.96045 2.41455,5.375 5.375,5.375h16.125c2.96045,0 5.375,-2.41455 5.375,-5.375v-5.375c0,-2.96045 -2.41455,-5.375 -5.375,-5.375zM96.75,48.375c-8.89185,0 -16.125,7.23315 -16.125,16.125v5.375c0,3.12842 0.92383,6.4353 2.51953,9.39575c-8.88135,2.43555 -16.51343,8.15698 -20.99609,16.16699c-0.72436,1.29126 -0.25195,2.92896 1.0498,3.65332c1.29126,0.72436 2.91846,0.26245 3.65332,-1.03931c4.09424,-7.33814 11.35889,-12.3667 19.72583,-14.05689c2.75049,2.82398 6.26733,4.69263 10.17261,4.69263c3.90527,0 7.42212,-1.86865 10.17261,-4.69263c8.36695,1.69019 15.63159,6.72925 19.72583,14.05689c0.50391,0.88184 1.41724,1.38574 2.35156,1.38574c0.45142,0 0.89233,-0.10498 1.30176,-0.33594c1.30176,-0.73486 1.76367,-2.36206 1.0498,-3.65332c-4.48267,-8.02051 -12.11474,-13.74194 -20.99609,-16.17749c1.5957,-2.96045 2.51953,-6.26733 2.51953,-9.39575v-5.375c0,-8.89185 -7.23315,-16.125 -16.125,-16.125zM21.5,53.75h16.125v5.375h-16.125zM96.75,53.75c5.9314,0 10.75,4.8186 10.75,10.75v5.375c0,6.04688 -4.96558,13.4375 -10.75,13.4375c-5.78442,0 -10.75,-7.39062 -10.75,-13.4375v-5.375c0,-5.9314 4.8186,-10.75 10.75,-10.75zM21.5,69.875c-2.96045,0 -5.375,2.41455 -5.375,5.375v5.375c0,2.96045 2.41455,5.375 5.375,5.375h16.125c2.96045,0 5.375,-2.41455 5.375,-5.375v-5.375c0,-2.96045 -2.41455,-5.375 -5.375,-5.375zM21.5,75.25h16.125v5.375h-16.125zM21.5,91.375c-2.96045,0 -5.375,2.41455 -5.375,5.375v5.375c0,2.96045 2.41455,5.375 5.375,5.375h16.125c2.96045,0 5.375,-2.41455 5.375,-5.375v-5.375c0,-2.96045 -2.41455,-5.375 -5.375,-5.375zM21.5,96.75h16.125v5.375h-16.125zM118.25,110.1875c-1.49072,0 -2.6875,1.19678 -2.6875,2.6875v5.375c0,1.49072 1.19678,2.6875 2.6875,2.6875c1.49072,0 2.6875,-1.19678 2.6875,-2.6875v-5.375c0,-1.49072 -1.19678,-2.6875 -2.6875,-2.6875zM131.6875,110.1875c-1.49072,0 -2.6875,1.19678 -2.6875,2.6875v5.375c0,1.49072 1.19678,2.6875 2.6875,2.6875c1.49072,0 2.6875,-1.19678 2.6875,-2.6875v-5.375c0,-1.49072 -1.19678,-2.6875 -2.6875,-2.6875zM145.125,110.1875c-1.49072,0 -2.6875,1.19678 -2.6875,2.6875v5.375c0,1.49072 1.19678,2.6875 2.6875,2.6875c1.49072,0 2.6875,-1.19678 2.6875,-2.6875v-5.375c0,-1.49072 -1.19678,-2.6875 -2.6875,-2.6875zM75.25,134.375h21.5v10.75h-21.5zM63.57617,150.5h44.84766c2.1521,0 4.17822,0.83984 5.70044,2.36206l3.01294,3.01294h-62.27441l3.01294,-3.01294c1.52222,-1.52222 3.54834,-2.36206 5.70044,-2.36206z"></path></g></g></svg>
