<svg xmlns="http://www.w3.org/2000/svg" x="0px" y="0px"
width="128" height="128"
viewBox="0 0 172 172"
style=" fill:#000000;"><g transform="translate(0.516,0.516) scale(0.994,0.994)"><g fill="none" fill-rule="nonzero" stroke="none" stroke-width="1" stroke-linecap="butt" stroke-linejoin="none" stroke-miterlimit="10" stroke-dasharray="" stroke-dashoffset="0" font-family="none" font-weight="none" font-size="none" text-anchor="none" style="mix-blend-mode: normal"><g fill="#068466" stroke="#cccccc" stroke-linejoin="round"><path d="M77.9375,16.125c4.40918,0 8.30396,2.1626 10.75,5.45898c2.44604,-3.29639 6.34082,-5.45898 10.75,-5.45898h53.75c3.49585,0 6.4563,2.25708 7.56909,5.375h3.18091c4.44067,0 8.0625,3.62183 8.0625,8.0625v107.5c0,4.44067 -3.62183,8.0625 -8.0625,8.0625h-57.02539c-1.58521,0 -2.96045,1.0708 -3.34888,2.60352c-1.19678,4.79761 -5.47998,8.14648 -10.42456,8.14648h-8.90234c-4.94458,0 -9.23828,-3.34888 -10.42456,-8.14648c-0.38843,-1.53271 -1.76367,-2.60352 -3.34888,-2.60352h-57.02539c-4.44067,0 -8.0625,-3.62183 -8.0625,-8.0625v-107.5c0,-4.44067 3.62183,-8.0625 8.0625,-8.0625h3.18091c1.11279,-3.11792 4.07324,-5.375 7.56909,-5.375zM21.5,24.1875v102.125c0,1.48022 1.20728,2.6875 2.6875,2.6875h53.75c4.40918,0 8.30396,2.1626 10.75,5.45898c2.44604,-3.29639 6.34082,-5.45898 10.75,-5.45898h53.75c1.48022,0 2.6875,-1.20728 2.6875,-2.6875v-102.125c0,-1.48022 -1.20728,-2.6875 -2.6875,-2.6875h-53.75c-4.44067,0 -8.0625,3.62183 -8.0625,8.0625v69.875c0,1.49072 -1.20728,2.6875 -2.6875,2.6875c-1.48022,0 -2.6875,-1.19678 -2.6875,-2.6875v-69.875c0,-4.44067 -3.62183,-8.0625 -8.0625,-8.0625h-53.75c-1.48022,0 -2.6875,1.20728 -2.6875,2.6875zM10.75,29.5625v107.5c0,1.48022 1.20728,2.6875 2.6875,2.6875h57.02539c4.06274,0 7.56909,2.73999 8.55591,6.67676c0.59839,2.40405 2.75049,4.07324 5.21753,4.07324h8.90234c2.47754,0 4.61914,-1.67969 5.21753,-4.07324c0.98682,-3.93677 4.49316,-6.67676 8.55591,-6.67676h57.02539c1.48022,0 2.6875,-1.20728 2.6875,-2.6875v-107.5c0,-1.48022 -1.20728,-2.6875 -2.6875,-2.6875h-2.6875v99.4375c0,4.44067 -3.62183,8.0625 -8.0625,8.0625h-53.75c-4.44067,0 -8.0625,3.62183 -8.0625,8.0625c0,1.49072 -1.20728,2.6875 -2.6875,2.6875c-1.48022,0 -2.6875,-1.19678 -2.6875,-2.6875c0,-4.44067 -3.62183,-8.0625 -8.0625,-8.0625h-53.75c-4.44067,0 -8.0625,-3.62183 -8.0625,-8.0625v-99.4375h-2.6875c-1.48022,0 -2.6875,1.20728 -2.6875,2.6875zM34.9375,34.9375v5.375c0,1.49072 -1.20728,2.6875 -2.6875,2.6875c-1.48022,0 -2.6875,-1.19678 -2.6875,-2.6875v-5.375c0,-1.49072 1.20728,-2.6875 2.6875,-2.6875c1.48022,0 2.6875,1.19678 2.6875,2.6875zM48.375,34.9375v5.375c0,1.49072 -1.20728,2.6875 -2.6875,2.6875c-1.48022,0 -2.6875,-1.19678 -2.6875,-2.6875v-5.375c0,-1.49072 1.20728,-2.6875 2.6875,-2.6875c1.48022,0 2.6875,1.19678 2.6875,2.6875zM61.8125,34.9375v5.375c0,1.49072 -1.20728,2.6875 -2.6875,2.6875c-1.48022,0 -2.6875,-1.19678 -2.6875,-2.6875v-5.375c0,-1.49072 1.20728,-2.6875 2.6875,-2.6875c1.48022,0 2.6875,1.19678 2.6875,2.6875zM75.25,34.9375v5.375c0,1.49072 -1.20728,2.6875 -2.6875,2.6875c-1.48022,0 -2.6875,-1.19678 -2.6875,-2.6875v-5.375c0,-1.49072 1.20728,-2.6875 2.6875,-2.6875c1.48022,0 2.6875,1.19678 2.6875,2.6875zM107.5,34.9375v5.375c0,1.49072 -1.20728,2.6875 -2.6875,2.6875c-1.48022,0 -2.6875,-1.19678 -2.6875,-2.6875v-5.375c0,-1.49072 1.20728,-2.6875 2.6875,-2.6875c1.48022,0 2.6875,1.19678 2.6875,2.6875zM120.9375,34.9375v5.375c0,1.49072 -1.20728,2.6875 -2.6875,2.6875c-1.48022,0 -2.6875,-1.19678 -2.6875,-2.6875v-5.375c0,-1.49072 1.20728,-2.6875 2.6875,-2.6875c1.48022,0 2.6875,1.19678 2.6875,2.6875zM134.375,34.9375v5.375c0,1.49072 -1.20728,2.6875 -2.6875,2.6875c-1.48022,0 -2.6875,-1.19678 -2.6875,-2.6875v-5.375c0,-1.49072 1.20728,-2.6875 2.6875,-2.6875c1.48022,0 2.6875,1.19678 2.6875,2.6875zM147.8125,34.9375v5.375c0,1.49072 -1.20728,2.6875 -2.6875,2.6875c-1.48022,0 -2.6875,-1.19678 -2.6875,-2.6875v-5.375c0,-1.49072 1.20728,-2.6875 2.6875,-2.6875c1.48022,0 2.6875,1.19678 2.6875,2.6875zM91.375,110.1875v10.75c0,1.49072 -1.20728,2.6875 -2.6875,2.6875c-1.48022,0 -2.6875,-1.19678 -2.6875,-2.6875v-10.75c0,-1.49072 1.20728,-2.6875 2.6875,-2.6875c1.48022,0 2.6875,1.19678 2.6875,2.6875z"></path></g><path d="M0,172v-172h172v172z" fill="none" stroke="none" stroke-linejoin="miter"></path><g fill="#F16A6E" stroke="none" stroke-linejoin="miter"><path d="M24.1875,16.125c-3.49585,0 -6.4563,2.25708 -7.56909,5.375h-3.18091c-4.44067,0 -8.0625,3.62183 -8.0625,8.0625v107.5c0,4.44067 3.62183,8.0625 8.0625,8.0625h57.02539c1.58521,0 2.96045,1.0708 3.34888,2.60352c1.18628,4.79761 5.47998,8.14648 10.42456,8.14648h8.90234c4.94458,0 9.22778,-3.34888 10.42456,-8.14648c0.38843,-1.53271 1.76367,-2.60352 3.34888,-2.60352h57.02539c4.44067,0 8.0625,-3.62183 8.0625,-8.0625v-107.5c0,-4.44067 -3.62183,-8.0625 -8.0625,-8.0625h-3.18091c-1.11279,-3.11792 -4.07324,-5.375 -7.56909,-5.375h-53.75c-4.40918,0 -8.30396,2.1626 -10.75,5.45898c-2.44604,-3.29639 -6.34082,-5.45898 -10.75,-5.45898zM24.1875,21.5h53.75c4.44067,0 8.0625,3.62183 8.0625,8.0625v69.875c0,1.49072 1.20728,2.6875 2.6875,2.6875c1.48022,0 2.6875,-1.19678 2.6875,-2.6875v-69.875c0,-4.44067 3.62183,-8.0625 8.0625,-8.0625h53.75c1.48022,0 2.6875,1.20728 2.6875,2.6875v102.125c0,1.48022 -1.20728,2.6875 -2.6875,2.6875h-53.75c-4.40918,0 -8.30396,2.1626 -10.75,5.45898c-2.44604,-3.29639 -6.34082,-5.45898 -10.75,-5.45898h-53.75c-1.48022,0 -2.6875,-1.20728 -2.6875,-2.6875v-102.125c0,-1.48022 1.20728,-2.6875 2.6875,-2.6875zM13.4375,26.875h2.6875v99.4375c0,4.44067 3.62183,8.0625 8.0625,8.0625h53.75c4.44067,0 8.0625,3.62183 8.0625,8.0625c0,1.49072 1.20728,2.6875 2.6875,2.6875c1.48022,0 2.6875,-1.19678 2.6875,-2.6875c0,-4.44067 3.62183,-8.0625 8.0625,-8.0625h53.75c4.44067,0 8.0625,-3.62183 8.0625,-8.0625v-99.4375h2.6875c1.48022,0 2.6875,1.20728 2.6875,2.6875v107.5c0,1.48022 -1.20728,2.6875 -2.6875,2.6875h-57.02539c-4.06274,0 -7.56909,2.73999 -8.55591,6.67676c-0.59839,2.39355 -2.73999,4.07324 -5.21753,4.07324h-8.90234c-2.46704,0 -4.61914,-1.66919 -5.21753,-4.07324c-0.98682,-3.93677 -4.49316,-6.67676 -8.55591,-6.67676h-57.02539c-1.48022,0 -2.6875,-1.20728 -2.6875,-2.6875v-107.5c0,-1.48022 1.20728,-2.6875 2.6875,-2.6875zM32.25,32.25c-1.48022,0 -2.6875,1.19678 -2.6875,2.6875v5.375c0,1.49072 1.20728,2.6875 2.6875,2.6875c1.48022,0 2.6875,-1.19678 2.6875,-2.6875v-5.375c0,-1.49072 -1.20728,-2.6875 -2.6875,-2.6875zM45.6875,32.25c-1.48022,0 -2.6875,1.19678 -2.6875,2.6875v5.375c0,1.49072 1.20728,2.6875 2.6875,2.6875c1.48022,0 2.6875,-1.19678 2.6875,-2.6875v-5.375c0,-1.49072 -1.20728,-2.6875 -2.6875,-2.6875zM59.125,32.25c-1.48022,0 -2.6875,1.19678 -2.6875,2.6875v5.375c0,1.49072 1.20728,2.6875 2.6875,2.6875c1.48022,0 2.6875,-1.19678 2.6875,-2.6875v-5.375c0,-1.49072 -1.20728,-2.6875 -2.6875,-2.6875zM72.5625,32.25c-1.48022,0 -2.6875,1.19678 -2.6875,2.6875v5.375c0,1.49072 1.20728,2.6875 2.6875,2.6875c1.48022,0 2.6875,-1.19678 2.6875,-2.6875v-5.375c0,-1.49072 -1.20728,-2.6875 -2.6875,-2.6875zM104.8125,32.25c-1.48022,0 -2.6875,1.19678 -2.6875,2.6875v5.375c0,1.49072 1.20728,2.6875 2.6875,2.6875c1.48022,0 2.6875,-1.19678 2.6875,-2.6875v-5.375c0,-1.49072 -1.20728,-2.6875 -2.6875,-2.6875zM118.25,32.25c-1.48022,0 -2.6875,1.19678 -2.6875,2.6875v5.375c0,1.49072 1.20728,2.6875 2.6875,2.6875c1.48022,0 2.6875,-1.19678 2.6875,-2.6875v-5.375c0,-1.49072 -1.20728,-2.6875 -2.6875,-2.6875zM131.6875,32.25c-1.48022,0 -2.6875,1.19678 -2.6875,2.6875v5.375c0,1.49072 1.20728,2.6875 2.6875,2.6875c1.48022,0 2.6875,-1.19678 2.6875,-2.6875v-5.375c0,-1.49072 -1.20728,-2.6875 -2.6875,-2.6875zM145.125,32.25c-1.48022,0 -2.6875,1.19678 -2.6875,2.6875v5.375c0,1.49072 1.20728,2.6875 2.6875,2.6875c1.48022,0 2.6875,-1.19678 2.6875,-2.6875v-5.375c0,-1.49072 -1.20728,-2.6875 -2.6875,-2.6875zM88.6875,107.5c-1.48022,0 -2.6875,1.19678 -2.6875,2.6875v10.75c0,1.49072 1.20728,2.6875 2.6875,2.6875c1.48022,0 2.6875,-1.19678 2.6875,-2.6875v-10.75c0,-1.49072 -1.20728,-2.6875 -2.6875,-2.6875z"></path></g><path d="" fill="none" stroke="none" stroke-linejoin="miter"></path></g></g></svg>
