<svg xmlns="http://www.w3.org/2000/svg" x="0px" y="0px"
width="128" height="128"
viewBox="0 0 172 172"
style=" fill:#000000;"><g transform="translate(0.516,0.516) scale(0.994,0.994)"><g fill="none" fill-rule="nonzero" stroke="none" stroke-width="1" stroke-linecap="butt" stroke-linejoin="miter" stroke-miterlimit="10" stroke-dasharray="" stroke-dashoffset="0" font-family="none" font-weight="none" font-size="none" text-anchor="none" style="mix-blend-mode: normal"><path d="M0,172v-172h172v172z" fill="none"></path><g fill="#068466"><path d="M67.1875,0c-37.04761,0 -67.1875,30.13989 -67.1875,67.1875c0,37.04761 30.13989,67.1875 67.1875,67.1875c14.82324,0 28.52319,-4.8291 39.64063,-12.98608c0,0 7.46411,7.30664 7.82104,7.43262c0,0.06299 -0.0105,0.11548 -0.0105,0.17847c0,3.59033 1.39624,6.9707 3.93677,9.50073l27.79883,27.79883c2.62451,2.62451 6.05737,3.92627 9.50073,3.92627c3.44336,0 6.88672,-1.30176 9.50073,-3.92627l0.92383,-0.93433c2.54053,-2.53003 3.93677,-5.8999 3.93677,-9.49023c0,-3.59033 -1.39624,-6.9707 -3.93677,-9.50073l-27.79883,-27.79883c-2.6665,-2.66651 -6.17285,-3.95776 -9.6687,-3.90527c-0.13647,-0.36743 -7.44311,-7.84204 -7.44311,-7.84204c8.15698,-11.11743 12.98608,-24.81738 12.98608,-39.64062c0,-37.04761 -30.13989,-67.1875 -67.1875,-67.1875zM67.1875,5.375c34.08716,0 61.8125,27.72534 61.8125,61.8125c0,34.08716 -27.72534,61.8125 -61.8125,61.8125c-34.08716,0 -61.8125,-27.72534 -61.8125,-61.8125c0,-34.08716 27.72534,-61.8125 61.8125,-61.8125zM67.1875,16.125c-13.63696,0 -26.46558,5.31201 -36.11328,14.94922c-19.9043,19.91479 -19.9043,52.31177 0,72.21607c9.64771,9.64771 22.47632,14.95972 36.11328,14.95972c13.63696,0 26.46558,-5.31201 36.11328,-14.94922c19.9043,-19.91479 19.9043,-52.31177 0,-72.22656c-9.64771,-9.63721 -22.47632,-14.94922 -36.11328,-14.94922zM67.1875,21.5c12.19873,0 23.6731,4.75561 32.30249,13.38501c17.81519,17.80469 17.81519,46.80029 0,64.60498c-8.62939,8.6294 -20.10376,13.38501 -32.30249,13.38501c-12.19873,0 -23.6731,-4.75561 -32.30249,-13.38501c-17.81518,-17.80469 -17.81518,-46.78979 0,-64.60498c8.62939,-8.6294 20.10376,-13.38501 32.30249,-13.38501zM66.6731,29.5625c-9.77368,0.11548 -19.09595,4.02075 -26.09815,11.01245c-1.0498,1.0603 -1.0498,2.75049 0,3.81079c0.5249,0.5144 1.21777,0.78735 1.91065,0.78735c0.68237,0 1.37524,-0.27295 1.90015,-0.78735c6.84473,-6.85522 16.30347,-10.24609 25.97217,-9.29077c1.48022,0.12598 2.79248,-0.93433 2.93945,-2.41455c0.14697,-1.48022 -0.93433,-2.79248 -2.41455,-2.93945c-1.40674,-0.13647 -2.81348,-0.19946 -4.20972,-0.17847zM85.62207,34.60156c-1.02881,-0.14697 -2.11011,0.32544 -2.6875,1.28076c-0.76636,1.27026 -0.35693,2.91846 0.92383,3.68481c2.20459,1.34375 4.27271,2.96045 6.13086,4.8186c0.5249,0.5249 1.20728,0.78735 1.90015,0.78735c0.69287,0 1.37524,-0.26245 1.91065,-0.78735c1.03931,-1.0498 1.03931,-2.75049 0,-3.80029c-2.1731,-2.1626 -4.58765,-4.05225 -7.17017,-5.61646c-0.31494,-0.18897 -0.66138,-0.31494 -1.00781,-0.36743zM29.5625,64.5c-1.48022,0 -2.6875,1.19678 -2.6875,2.6875c0,1.49072 1.20728,2.6875 2.6875,2.6875h5.375c1.48022,0 2.6875,-1.19678 2.6875,-2.6875c0,-1.49072 -1.20728,-2.6875 -2.6875,-2.6875zM99.4375,64.5c-1.48022,0 -2.6875,1.19678 -2.6875,2.6875c0,1.49072 1.20728,2.6875 2.6875,2.6875h5.375c1.48022,0 2.6875,-1.19678 2.6875,-2.6875c0,-1.49072 -1.20728,-2.6875 -2.6875,-2.6875zM37.33105,76.58325c-0.34643,-0.0105 -0.71387,0.05249 -1.0498,0.18896l-4.98657,2.01563c-1.37524,0.5564 -2.03662,2.12061 -1.48022,3.49585c0.41992,1.0498 1.42773,1.69018 2.48804,1.69018c0.33594,0 0.68238,-0.06299 1.00781,-0.19946l4.98657,-2.01562c1.37524,-0.5564 2.03662,-2.1206 1.48022,-3.49585c-0.41992,-1.02881 -1.39624,-1.66919 -2.44604,-1.67969zM96.87598,77.09766c-1.0498,0 -2.04712,0.61939 -2.47754,1.6377c-0.57739,1.37524 0.05249,2.94995 1.42773,3.52734l4.94458,2.09961c0.33594,0.14697 0.69287,0.20996 1.0498,0.20996c1.0498,0 2.03662,-0.60889 2.47754,-1.6377c0.57739,-1.36474 -0.06299,-2.93945 -1.42773,-3.51685l-4.94458,-2.09961c-0.34643,-0.14697 -0.70337,-0.22046 -1.0498,-0.22046zM44.38574,87.30176c-0.69287,0 -1.37524,0.26245 -1.90015,0.78735l-3.80029,3.80029c-1.0498,1.0498 -1.0498,2.75049 0,3.80029c0.5249,0.5249 1.20728,0.78735 1.90015,0.78735c0.69287,0 1.37524,-0.26245 1.90015,-0.78735l3.80029,-3.80029c1.0498,-1.0498 1.0498,-2.75049 0,-3.80029c-0.5249,-0.5249 -1.21777,-0.78735 -1.90015,-0.78735zM89.98926,87.30176c-0.68237,0 -1.37524,0.26245 -1.90015,0.78735c-1.0498,1.0498 -1.0498,2.75049 0,3.80029l3.80029,3.80029c0.5249,0.5249 1.20728,0.78735 1.90015,0.78735c0.69287,0 1.37524,-0.26245 1.90015,-0.78735c1.0498,-1.0498 1.0498,-2.75049 0,-3.80029l-3.80029,-3.80029c-0.5249,-0.5249 -1.21777,-0.78735 -1.90015,-0.78735zM54.58984,94.18848c-1.0498,0 -2.04712,0.60889 -2.47754,1.6377l-2.09961,4.94458c-0.57739,1.36474 0.06299,2.94995 1.42773,3.52734c0.34643,0.14697 0.69287,0.20996 1.0498,0.20996c1.03931,0 2.03662,-0.61939 2.47754,-1.6377l2.09961,-4.94458c0.57739,-1.36474 -0.06299,-2.94995 -1.42773,-3.52734c-0.34643,-0.14697 -0.70337,-0.20996 -1.0498,-0.20996zM79.31274,94.39844c-0.34643,0 -0.71387,0.06299 -1.0498,0.19946c-1.38574,0.5564 -2.04712,2.1206 -1.49072,3.49585l2.01563,4.98657c0.41992,1.0498 1.42773,1.67969 2.49854,1.67969c0.33594,0 0.67188,-0.06299 1.00781,-0.19946c1.37524,-0.5564 2.03662,-2.1206 1.48022,-3.49585l-2.01562,-4.98657c-0.41992,-1.02881 -1.39624,-1.65869 -2.44604,-1.67969zM67.1875,96.75c-1.48022,0 -2.6875,1.19678 -2.6875,2.6875v5.375c0,1.49072 1.20728,2.6875 2.6875,2.6875c1.48022,0 2.6875,-1.19678 2.6875,-2.6875v-5.375c0,-1.49072 -1.20728,-2.6875 -2.6875,-2.6875zM118.00854,111.05884l5.03906,5.04956c-1.27026,0.62988 -2.48804,1.41724 -3.54834,2.47754l-0.92383,0.91333c-1.0498,1.0498 -1.83716,2.25708 -2.47754,3.53784l-5.03906,-5.02857c2.48804,-2.1416 4.8081,-4.46167 6.94971,-6.94971zM129,120.01367c2.06811,0 4.13623,0.78735 5.71094,2.36206l27.79883,27.79883c1.52222,1.52222 2.35156,3.54834 2.35156,5.70044c0,2.1521 -0.83984,4.17822 -2.36206,5.70044l-0.92383,0.92383c-3.14941,3.13892 -8.25147,3.13892 -11.40088,0l-27.79883,-27.79883c-1.52222,-1.52222 -2.36206,-3.54834 -2.36206,-5.70044c0,-2.1521 0.83984,-4.17822 2.36206,-5.70044l0.92383,-0.92383c1.57471,-1.57471 3.64282,-2.36206 5.70044,-2.36206z"></path></g></g></g></svg>
