<svg xmlns="http://www.w3.org/2000/svg" x="0px" y="0px"
width="128" height="128"
viewBox="0 0 172 172"
style=" fill:#000000;"><g fill="none" fill-rule="nonzero" stroke="none" stroke-width="1" stroke-linecap="butt" stroke-linejoin="miter" stroke-miterlimit="10" stroke-dasharray="" stroke-dashoffset="0" font-family="none" font-weight="none" font-size="none" text-anchor="none" style="mix-blend-mode: normal"><path d="M0,172v-172h172v172z" fill="none"></path><g fill="#f16a6e"><path d="M36.0083,13.47424c-0.93542,-0.06153 -1.89477,-0.04707 -2.86597,0.05774c-7.10575,0.76863 -13.0285,6.38013 -14.13037,13.4375c-1.09381,7.01438 2.3671,13.36611 7.86304,16.52393v5.15454c-0.18812,0.02688 -0.37877,0.08273 -0.56689,0.13648c-5.9125,1.69312 -11.0956,5.12783 -14.93872,9.96265c-3.87,4.80794 -5.99438,10.88139 -5.99438,17.03308v24.40796c0,5.27556 4.31696,10.04902 9.59521,9.9469c1.247,-0.02687 2.42022,-0.2963 3.52209,-0.75586l-1.96838,42.70605c-0.12094,2.60419 0.50437,5.2497 2.05237,7.34863c2.0855,2.83263 5.24944,4.41968 8.70288,4.41968c4.91812,0 9.0827,-3.30285 10.34582,-7.84204c1.26313,4.53919 5.42707,7.84204 10.37207,7.84204c3.42656,0 6.60163,-1.58949 8.68713,-4.43018c1.54263,-2.10163 2.16281,-4.74969 2.04187,-7.35388l-0.69812,-15.0752l100.5293,0.07874c4.4505,0.00538 8.06775,-3.60406 8.06775,-8.05725v-96.77624c0,-4.43169 -3.62813,-8.05725 -8.0625,-8.05725h-108.43957c-2.06467,-5.9377 -7.56666,-10.27727 -14.11462,-10.70801zM34.9375,18.80725c3.9775,0 7.44689,2.15269 9.30127,5.375c0.91375,1.58294 1.44873,3.40788 1.44873,5.36975c0,5.93669 -4.81062,10.74475 -10.75,10.74475c-0.94062,0 -1.8275,-0.10456 -2.6875,-0.34644c-2.12312,-0.5375 -3.9775,-1.7187 -5.375,-3.30163c-1.66625,-1.90812 -2.6875,-4.38499 -2.6875,-7.09668c0,-5.93669 4.81062,-10.74475 10.75,-10.74475zM51.0625,29.54675h107.5c1.47813,0 2.6875,1.21206 2.6875,2.6875v96.77624c0,1.49156 -1.20656,2.69275 -2.69275,2.69275l-100.776,-0.08398l-0.48291,-10.59253h20.63916c1.48619,0 2.6875,-1.20144 2.6875,-2.68225c0,-1.4835 -1.20131,-2.6875 -2.6875,-2.6875h-20.88061l-0.61939,-13.63696v-25.43677l2.44604,1.6377c4.91275,3.29219 10.69797,5.04956 16.61316,5.04956h11.57935c4.48812,0 8.57417,-3.03062 9.47449,-7.42737c1.23625,-6.0415 -3.37491,-11.37463 -9.20679,-11.37463h-8.01001c-2.27631,0 -4.49195,-0.71668 -6.33557,-2.05237l-11.15942,-8.09924c-2.795,-2.01562 -5.88479,-3.51517 -9.21729,-4.48267l-3.67956,-1.0498c-5.45563,-1.53187 -11.12877,-1.96502 -16.6919,-1.21252v-2.14685c0.86,0.16125 1.77375,0.24145 2.6875,0.24146c8.89562,0 16.125,-7.22681 16.125,-16.11975zM58.48987,35.00574c-1.48619,0 -2.6875,1.204 -2.6875,2.6875v5.375c0,1.4835 1.20131,2.6875 2.6875,2.6875c1.48619,0 2.6875,-1.204 2.6875,-2.6875v-5.375c0,-1.4835 -1.20131,-2.6875 -2.6875,-2.6875zM71.92737,35.00574c-1.48619,0 -2.6875,1.204 -2.6875,2.6875v5.375c0,1.4835 1.20131,2.6875 2.6875,2.6875c1.48619,0 2.6875,-1.204 2.6875,-2.6875v-5.375c0,-1.4835 -1.20131,-2.6875 -2.6875,-2.6875zM85.36487,35.00574c-1.48619,0 -2.6875,1.204 -2.6875,2.6875v5.375c0,1.4835 1.20131,2.6875 2.6875,2.6875c1.48619,0 2.6875,-1.204 2.6875,-2.6875v-5.375c0,-1.4835 -1.20131,-2.6875 -2.6875,-2.6875zM98.80237,35.00574c-1.48619,0 -2.6875,1.204 -2.6875,2.6875v5.375c0,1.4835 1.20131,2.6875 2.6875,2.6875c1.48619,0 2.6875,-1.204 2.6875,-2.6875v-5.375c0,-1.4835 -1.20131,-2.6875 -2.6875,-2.6875zM112.23987,35.00574c-1.48619,0 -2.6875,1.204 -2.6875,2.6875v5.375c0,1.4835 1.20131,2.6875 2.6875,2.6875c1.48619,0 2.6875,-1.204 2.6875,-2.6875v-5.375c0,-1.4835 -1.20131,-2.6875 -2.6875,-2.6875zM125.67737,35.00574c-1.48619,0 -2.6875,1.204 -2.6875,2.6875v5.375c0,1.4835 1.20131,2.6875 2.6875,2.6875c1.48619,0 2.6875,-1.204 2.6875,-2.6875v-5.375c0,-1.4835 -1.20131,-2.6875 -2.6875,-2.6875zM139.11487,35.00574c-1.48619,0 -2.6875,1.204 -2.6875,2.6875v5.375c0,1.4835 1.20131,2.6875 2.6875,2.6875c1.48619,0 2.6875,-1.204 2.6875,-2.6875v-5.375c0,-1.4835 -1.20131,-2.6875 -2.6875,-2.6875zM152.55237,35.00574c-1.48619,0 -2.6875,1.204 -2.6875,2.6875v5.375c0,1.4835 1.20131,2.6875 2.6875,2.6875c1.48619,0 2.6875,-1.204 2.6875,-2.6875v-5.375c0,-1.4835 -1.20131,-2.6875 -2.6875,-2.6875zM36.07129,52.62671c3.82717,-0.17259 7.66147,0.26938 11.39038,1.31751l3.67957,1.07605c2.71438,0.77938 5.26897,2.01138 7.55335,3.64807l11.18042,8.11499c2.76812,1.98875 6.04561,3.06018 9.45874,3.06018h8.01001c2.23062,0 4.03125,1.79806 4.03125,4.026c0,2.22794 -1.80063,4.03125 -4.03125,4.03125h-11.93103c-4.8375,0 -9.51648,-1.42454 -13.54773,-4.13623l-6.60852,-4.46167c-0.83312,-0.56437 -1.88461,-0.61434 -2.77148,-0.15747c-0.88687,0.48375 -1.42249,1.39456 -1.42249,2.36206v30.70154l1.34375,29.41553l0.24146,5.36975l0.72436,15.8783c0.05375,1.47813 -0.45373,2.87227 -1.47498,3.94727c-1.02125,1.075 -2.42127,1.66394 -3.92627,1.66394c-2.84875,0 -5.21438,-2.22911 -5.34875,-5.10205l-0.82935,-16.38745l-0.27295,-5.36975l-1.20728,-24.31347c-0.08062,-1.42438 -1.26313,-2.55103 -2.6875,-2.55103c-1.42437,0 -2.60688,1.12934 -2.6875,2.55103l-1.20728,24.01428l-0.27295,5.53247l-0.82935,16.51868c-0.13437,2.87294 -2.49938,5.1073 -5.375,5.1073c-1.47813,0 -2.87877,-0.59419 -3.90002,-1.66919c-1.02125,-1.075 -1.52873,-2.47183 -1.47498,-3.94727l2.30957,-50.7948v-30.42859c0,-1.505 -1.20937,-2.6875 -2.6875,-2.6875c-1.47812,0 -2.6875,1.18519 -2.6875,2.6875v29.09009c0,2.22794 -1.80062,4.026 -4.03125,4.026c-2.23062,0 -4.03125,-1.79806 -4.03125,-4.026v-24.95386c0,-4.94231 1.69061,-9.80639 4.80811,-13.67371c2.92938,-3.70606 6.85564,-6.39285 11.31689,-7.86829c0.29562,-0.1075 0.59083,-0.21332 0.91333,-0.29395c1.47812,-0.43 2.95667,-0.72458 4.46167,-0.93958c1.26984,-0.19484 2.54557,-0.3204 3.82129,-0.37793zM88.05237,115.63074c-1.48619,0 -2.6875,1.204 -2.6875,2.6875c0,1.4835 1.20131,2.6875 2.6875,2.6875h10.75c1.48619,0 2.6875,-1.204 2.6875,-2.6875c0,-1.4835 -1.20131,-2.6875 -2.6875,-2.6875z"></path></g></g></svg>
